<?xml version="1.0" encoding="UTF-8"?>
<svg version="1.1" xmlns="http://www.w3.org/2000/svg" width="500" height="200">
<path d="M0 0 C2.75 -0.36328125 2.75 -0.36328125 6 -0.3125 C7.60875 -0.30669922 7.60875 -0.30669922 9.25 -0.30078125 C12 0 12 0 14 2 C14.37890625 4.3125 14.37890625 4.3125 14.5625 7 C14.77217523 10.63718775 14.77217523 10.63718775 16 14 C16.11805177 15.5107757 16.17696449 17.02638831 16.20532227 18.54150391 C16.22526749 19.48232819 16.24521271 20.42315247 16.26576233 21.39248657 C16.29083107 22.91910416 16.29083107 22.91910416 16.31640625 24.4765625 C16.33718735 25.51694672 16.35796844 26.55733093 16.37937927 27.62924194 C16.44489872 30.96109249 16.50377092 34.2930235 16.5625 37.625 C16.60568294 39.88021674 16.64929715 42.13542527 16.69335938 44.390625 C16.80058252 49.92699764 16.90234446 55.46345078 17 61 C17.33 60.67 17.66 60.34 18 60 C21.55628795 59.93953177 25.09864721 59.97975225 28.65429688 60.0390625 C29.40388672 60.04679687 30.15347656 60.05453125 30.92578125 60.0625 C31.61067627 60.07410156 32.29557129 60.08570313 33.0012207 60.09765625 C35.12175774 59.99405117 36.94874039 59.53020596 39 59 C44.87463816 58.60835746 49.84183529 58.94764274 55 62 C58.25891461 64.99028391 60.59561959 67.78685878 62 72 C62.36351562 71.46890625 62.72703125 70.9378125 63.1015625 70.390625 C66.67142239 65.37451418 69.99725269 61.60109892 75.875 59.25 C80.7029114 58.68201042 85.38662513 58.88224037 90.1875 59.5 C95.22648309 60.143087 100.20764977 59.98808042 105.27734375 59.83984375 C108 60 108 60 110 62 C111.51099076 68.54402476 111.18603481 75.2702865 111.18530273 81.94750977 C111.18747673 84.16377335 111.20562979 86.37952818 111.22460938 88.59570312 C111.3143193 110.3383061 111.3143193 110.3383061 104 119 C105.01320313 118.94779297 105.01320313 118.94779297 106.046875 118.89453125 C106.93890625 118.86746094 107.8309375 118.84039062 108.75 118.8125 C110.07257813 118.76029297 110.07257813 118.76029297 111.421875 118.70703125 C114.50493103 119.05737853 115.78515964 119.85998533 118 122 C118.90238747 124.70716242 119.11851302 126.23776768 119.09765625 129.01171875 C119.09443359 129.76904297 119.09121094 130.52636719 119.08789062 131.30664062 C119.07951172 132.09232422 119.07113281 132.87800781 119.0625 133.6875 C119.05798828 134.48478516 119.05347656 135.28207031 119.04882812 136.10351562 C119.0370585 138.06904257 119.01912348 140.03453085 119 142 C116.23500114 143.38249943 114.01635194 143.09457049 110.92578125 143.0625 C109.08790039 143.05089844 109.08790039 143.05089844 107.21289062 143.0390625 C104.63215949 143.01321642 102.05143028 142.98717774 99.47070312 142.9609375 C97.6231543 142.94933594 97.6231543 142.94933594 95.73828125 142.9375 C94.05279175 142.92009766 94.05279175 142.92009766 92.33325195 142.90234375 C88.92811736 142.93854808 88.92811736 142.93854808 85.30541992 143.53515625 C81.63222006 144.05172118 78.65190227 143.54102256 75 143 C74.154375 143.185625 73.30875 143.37125 72.4375 143.5625 C70 144 70 144 67 142.9375 C63.30772872 141.78366522 62.47882464 142.59190431 59 144 C53.95330274 144.06179629 50.13838706 142.9744657 46 140 C45.9175 140.7425 45.835 141.485 45.75 142.25 C44.82464634 145.64296341 43.79514357 146.88475622 41 149 C37.9375 149.875 37.9375 149.875 35 150 C34.01 149.34 33.02 148.68 32 148 C31.8125 144.875 31.8125 144.875 32 142 C31.29875 142.33 30.5975 142.66 29.875 143 C24.62812786 144.824999 20.99365031 144.12567547 16 142 C15.85900879 142.5347998 15.71801758 143.06959961 15.57275391 143.62060547 C14.93052564 146.04066463 14.27790092 148.45779941 13.625 150.875 C13.40328125 151.71675781 13.1815625 152.55851563 12.953125 153.42578125 C12.73398437 154.23144531 12.51484375 155.03710938 12.2890625 155.8671875 C12.09006348 156.61081543 11.89106445 157.35444336 11.68603516 158.12060547 C11 160 11 160 9 162 C6.52927239 162.90682542 4.06355054 163.74841281 1.5625 164.5625 C-6.07981737 167.13581542 -13.27532672 170.33442515 -20.48999023 173.92797852 C-33.68229597 180.43678864 -48.71877003 181.8424834 -63 178 C-66.74124921 176.45548428 -70.26708359 174.52421873 -73.8359375 172.62109375 C-87.37997296 165.68186571 -103.09860523 168.97776378 -117.16894531 172.55078125 C-118.69118998 172.9347709 -120.214482 173.31463131 -121.73876953 173.69042969 C-123.20887627 174.05422635 -124.67625736 174.42928612 -126.14013672 174.81738281 C-130.43351251 175.8884229 -133.69653029 176.04897074 -138 175 C-138.49082306 169.60094637 -138.49082306 169.60094637 -136.32861328 166.95361328 C-133.79122028 164.82484218 -131.5622164 163.72071287 -128.4921875 162.4921875 C-126.88730469 161.84830078 -126.88730469 161.84830078 -125.25 161.19140625 C-123.579375 160.53978516 -123.579375 160.53978516 -121.875 159.875 C-120.78445312 159.43285156 -119.69390625 158.99070313 -118.5703125 158.53515625 C-108.26000634 154.45296565 -99.06955783 152.64874104 -88 152.6875 C-87.07960937 152.67138672 -86.15921875 152.65527344 -85.2109375 152.63867188 C-77.23745705 152.63305675 -70.15820375 154.18034295 -63.125 158 C-50.21454113 164.79497835 -37.40992304 163.61539731 -23.9296875 159.52734375 C-21.39098499 158.73669683 -18.85720102 157.93181687 -16.32421875 157.12304688 C-11.18849675 155.52659376 -6.3582428 154.50117514 -1 154 C-1.20931152 153.21270508 -1.41862305 152.42541016 -1.63427734 151.61425781 C-4.14287525 141.26277229 -4.51297975 131.35250898 -4.625 120.75 C-4.66159618 118.22534491 -4.70210921 115.70084015 -4.74765015 113.17633057 C-4.77472707 111.62055452 -4.79614259 110.06466695 -4.81118774 108.50872803 C-4.79587228 104.62640441 -4.79587228 104.62640441 -6 101 C-6.15306901 99.18828902 -6.24946661 97.3716206 -6.31640625 95.5546875 C-6.35451416 94.58515137 -6.39262207 93.61561523 -6.43188477 92.61669922 C-6.47498779 91.38193848 -6.51809082 90.14717773 -6.5625 88.875 C-6.7790625 82.996875 -6.7790625 82.996875 -7 77 C-7.33 85.58 -7.66 94.16 -8 103 C-11.34890621 104.11630207 -13.97539261 104.16765424 -17.5 104.1875 C-18.6446875 104.20167969 -19.789375 104.21585937 -20.96875 104.23046875 C-24 104 -24 104 -27 102 C-27.41650391 99.69335938 -27.41650391 99.69335938 -27.4765625 96.84375 C-27.5075 95.82152344 -27.5384375 94.79929687 -27.5703125 93.74609375 C-27.58835937 92.67488281 -27.60640625 91.60367188 -27.625 90.5 C-27.67589478 88.38532198 -27.7304011 86.27072682 -27.7890625 84.15625 C-27.80662598 83.21587891 -27.82418945 82.27550781 -27.84228516 81.30664062 C-27.85309397 78.97284661 -27.85309397 78.97284661 -29 77 C-30.98 77.99 -30.98 77.99 -33 79 C-33.01458252 79.68626465 -33.02916504 80.3725293 -33.04418945 81.07958984 C-33.11850151 84.17863901 -33.21521582 87.27659055 -33.3125 90.375 C-33.33505859 91.45523438 -33.35761719 92.53546875 -33.38085938 93.6484375 C-33.4340332 95.1953125 -33.4340332 95.1953125 -33.48828125 96.7734375 C-33.51446533 97.72653809 -33.54064941 98.67963867 -33.56762695 99.66162109 C-33.71031006 100.43328613 -33.85299316 101.20495117 -34 102 C-37.58472042 104.38981361 -39.25353765 104.24010257 -43.5 104.1875 C-44.6446875 104.18105469 -45.789375 104.17460938 -46.96875 104.16796875 C-50 104 -50 104 -53 103 C-53.33 93.1 -53.66 83.2 -54 73 C-54.99 74.65 -55.98 76.3 -57 78 C-59.93183858 79.08015105 -61.63052611 79.07733174 -64.6875 78.4375 C-65.450625 78.293125 -66.21375 78.14875 -67 78 C-69.51916888 80.51916888 -69.27119177 81.44970089 -69.34375 84.9375 C-69.38822266 86.40316406 -69.38822266 86.40316406 -69.43359375 87.8984375 C-69.46646484 89.43371094 -69.46646484 89.43371094 -69.5 91 C-69.54327166 93.02104122 -69.59493969 95.04192556 -69.65625 97.0625 C-69.67494141 97.96097656 -69.69363281 98.85945313 -69.71289062 99.78515625 C-70 102 -70 102 -72 104 C-74.7122125 104.22504349 -77.28873185 104.32434995 -80 104.3125 C-80.73734375 104.32861328 -81.4746875 104.34472656 -82.234375 104.36132812 C-84.375 104.36328125 -84.375 104.36328125 -88 104 C-90.52702962 100.20945557 -90.30590589 97.14697214 -90.30078125 92.75390625 C-90.30506638 91.94638412 -90.3093515 91.138862 -90.31376648 90.30686951 C-90.31950699 88.59969012 -90.32001208 86.89248626 -90.31567383 85.18530273 C-90.31251583 82.5755837 -90.33596851 79.96700058 -90.36132812 77.35742188 C-90.36360138 75.6979181 -90.36430449 74.03841127 -90.36328125 72.37890625 C-90.372491 71.59963272 -90.38170074 70.82035919 -90.39118958 70.01747131 C-90.36382893 66.80742794 -90.19533735 64.38630119 -88.73510742 61.49853516 C-86.60201162 59.65627513 -85.66225896 59.53869783 -82.875 59.64453125 C-81.69164062 59.67063477 -81.69164062 59.67063477 -80.484375 59.69726562 C-79.66453125 59.73529297 -78.8446875 59.77332031 -78 59.8125 C-76.37512985 59.86487396 -74.75012348 59.91321665 -73.125 59.95703125 C-72.40570313 59.98772705 -71.68640625 60.01842285 -70.9453125 60.05004883 C-68.78081076 60.08900558 -68.78081076 60.08900558 -66 59 C-62.1051409 58.87017136 -58.63520781 58.90132694 -54.78125 59.5 C-50.56546477 60.0574592 -46.49458921 60.14722298 -42.25 60.125 C-41.49589844 60.12886719 -40.74179687 60.13273437 -39.96484375 60.13671875 C-36.71797795 60.13095167 -34.10112935 60.03370978 -31 59 C-24.99717391 58.39506404 -20.35792401 59.011927 -15 62 C-12.125 64.625 -12.125 64.625 -10 67 C-9.67 67.33 -9.34 67.66 -9 68 C-8.99857498 67.43116592 -8.99714996 66.86233185 -8.99568176 66.27626038 C-8.97589795 60.32163109 -8.92143986 54.36801498 -8.84741211 48.41381836 C-8.824306 46.19579351 -8.80985385 43.97766009 -8.80444336 41.75952148 C-8.79509997 38.55905067 -8.75398988 35.3602702 -8.70703125 32.16015625 C-8.7109639 31.17854019 -8.71489655 30.19692413 -8.71894836 29.18556213 C-8.59203252 23.11022662 -7.50984691 19.13939544 -4.1360321 14.05247498 C-2.49258124 11.08324395 -2.35207877 8.28736593 -2.23828125 4.9453125 C-2 3 -2 3 0 0 Z M38 76 C34.75150023 77.72226496 34.75150023 77.72226496 34 81 C33.91821886 82.70016844 33.89250499 84.40336297 33.90234375 86.10546875 C33.90717773 87.57983398 33.90717773 87.57983398 33.91210938 89.08398438 C33.92048828 90.10814453 33.92886719 91.13230469 33.9375 92.1875 C33.94201172 93.22326172 33.94652344 94.25902344 33.95117188 95.32617188 C33.96295974 97.8841392 33.98089518 100.44207686 34 103 C28.06 103 22.12 103 16 103 C16 107.29 16 111.58 16 116 C17.485 115.505 17.485 115.505 19 115 C20.47586615 114.88312662 21.95706612 114.82498258 23.4375 114.8125 C24.58025391 114.79123047 24.58025391 114.79123047 25.74609375 114.76953125 C28.2732592 115.02794158 29.85425032 115.65595899 32 117 C32.33 117.66 32.66 118.32 33 119 C38.21964351 120.87907166 42.59173506 121.08165299 48 120 C58.20645793 119.58219178 58.20645793 119.58219178 63 121 C64.19838209 118.67145537 64.19838209 118.67145537 65 116 C64.34 115.01 63.68 114.02 63 113 C62.92094936 110.66800612 62.91201231 108.33167378 63 106 C63.94875 105.71125 64.8975 105.4225 65.875 105.125 C69.05211578 104.23174891 69.05211578 104.23174891 71 102 C69.88625 100.9171875 69.88625 100.9171875 68.75 99.8125 C66.30709485 97.31407427 64.1318953 94.76356798 62 92 C61.90912109 93.06541016 61.90912109 93.06541016 61.81640625 94.15234375 C61.73261719 95.07144531 61.64882813 95.99054688 61.5625 96.9375 C61.48128906 97.85402344 61.40007812 98.77054688 61.31640625 99.71484375 C61 102 61 102 60 103 C57.7101179 103.09956009 55.41704063 103.1296872 53.125 103.125 C51.86945313 103.12757812 50.61390625 103.13015625 49.3203125 103.1328125 C46 103 46 103 43 102 C42.505 90.12 42.505 90.12 42 78 C40.68 77.34 39.36 76.68 38 76 Z M82.25 78.1875 C80.56754759 80.62705599 80.55362529 82.09856437 81 85 C83.837578 87.35014158 83.837578 87.35014158 87.125 86.6875 C89.88086422 86.29355679 89.88086422 86.29355679 91 85 C91.29978682 82.15202522 91.40071289 80.58103368 89.75 78.1875 C87.0991395 76.3887018 84.9008605 76.3887018 82.25 78.1875 Z M80 104 C81.89755144 106.34973818 81.89755144 106.34973818 85.125 106.125 C86.07375 106.08375 87.0225 106.0425 88 106 C88.33 105.34 88.66 104.68 89 104 C86.03 104 83.06 104 80 104 Z " fill="#F1F1F1" transform="translate(303,8)"/>
<path d="M0 0 C0.88211655 0.2172171 1.76423309 0.4344342 2.67308044 0.65823364 C5.47048239 1.34944113 8.26445455 2.05354558 11.05859375 2.7578125 C12.93794744 3.22347872 14.81750325 3.68833004 16.69726562 4.15234375 C38.06220039 9.44891914 38.06220039 9.44891914 39.49609375 10.8828125 C39.87109375 13.2578125 39.87109375 13.2578125 39.49609375 15.8828125 C35.51317926 18.96262428 31.22619406 19.76112911 26.37109375 20.5703125 C25.65566406 20.69986328 24.94023437 20.82941406 24.203125 20.96289062 C21.26185608 21.48242317 18.48821027 21.8828125 15.49609375 21.8828125 C15.66109375 23.1821875 15.82609375 24.4815625 15.99609375 25.8203125 C16.17167002 27.50690878 16.33797294 29.1944903 16.49609375 30.8828125 C16.61597656 32.10097656 16.61597656 32.10097656 16.73828125 33.34375 C16.86732528 35.62858836 16.91125583 37.63100949 16.49609375 39.8828125 C14.2457677 42.25157676 12.37914597 43.44128639 9.49609375 44.8828125 C9.82609375 45.2128125 10.15609375 45.5428125 10.49609375 45.8828125 C14.32552691 45.87526682 18.1439062 45.80348273 21.97070312 45.66796875 C22.77185547 45.65378906 23.57300781 45.63960937 24.3984375 45.625 C25.13570068 45.6029248 25.87296387 45.58084961 26.63256836 45.55810547 C27.24753174 45.66525879 27.86249512 45.77241211 28.49609375 45.8828125 C30.54794231 48.96058534 30.73983143 49.45632815 30.63134766 52.89526367 C30.60108994 54.0961689 30.60108994 54.0961689 30.57022095 55.32133484 C30.5380246 56.18080215 30.50582825 57.04026947 30.47265625 57.92578125 C30.44763031 58.8093782 30.42260437 59.69297516 30.39682007 60.60334778 C30.31463526 63.42606049 30.21804003 66.24807194 30.12109375 69.0703125 C30.06285262 70.98369529 30.00554938 72.89710688 29.94921875 74.81054688 C29.80905869 79.50170556 29.65597292 84.19228613 29.49609375 88.8828125 C26.00739048 90.04571359 22.82806941 90.08206275 19.1953125 90.12109375 C18.1243206 90.13320137 18.1243206 90.13320137 17.0316925 90.14555359 C15.52123425 90.1593713 14.01074507 90.17010379 12.50024414 90.17797852 C10.9610881 90.18949502 9.42197189 90.20994198 7.88305664 90.23950195 C5.65353388 90.28231759 3.42519607 90.29836572 1.1953125 90.30859375 C0.51385666 90.32610184 -0.16759918 90.34360992 -0.8697052 90.36164856 C-5.87472321 90.3391406 -8.64103063 88.98973132 -12.50390625 85.8828125 C-14.87890625 83.1328125 -14.87890625 83.1328125 -16.50390625 80.8828125 C-17.20515625 81.6253125 -17.90640625 82.3678125 -18.62890625 83.1328125 C-25.05238237 89.27700705 -29.34275097 90.52776907 -38.00390625 90.3828125 C-39.39029297 90.40601562 -39.39029297 90.40601562 -40.8046875 90.4296875 C-47.94468385 90.38882915 -51.65065378 88.58589379 -56.87890625 83.6328125 C-57.41515625 83.0553125 -57.95140625 82.4778125 -58.50390625 81.8828125 C-59.16390625 84.1928125 -59.82390625 86.5028125 -60.50390625 88.8828125 C-64.95890625 89.8728125 -64.95890625 89.8728125 -69.50390625 90.8828125 C-69.59478516 91.91341797 -69.59478516 91.91341797 -69.6875 92.96484375 C-69.81318359 94.31642578 -69.81318359 94.31642578 -69.94140625 95.6953125 C-70.02261719 96.58863281 -70.10382813 97.48195313 -70.1875 98.40234375 C-70.50390625 100.8828125 -70.50390625 100.8828125 -71.50390625 103.8828125 C-71.46265625 104.8728125 -71.42140625 105.8628125 -71.37890625 106.8828125 C-71.50390625 109.8828125 -71.50390625 109.8828125 -72.69702148 111.5612793 C-75.12246462 113.33521845 -76.56001908 113.17700797 -79.5390625 113.02734375 C-80.51294922 112.98158203 -81.48683594 112.93582031 -82.49023438 112.88867188 C-83.50537109 112.82486328 -84.52050781 112.76105469 -85.56640625 112.6953125 C-86.58541016 112.65083984 -87.60441406 112.60636719 -88.65429688 112.56054688 C-96.23297991 112.15373884 -96.23297991 112.15373884 -98.50390625 109.8828125 C-99.16784769 103.11060981 -97.34038724 98.34894411 -93.31640625 92.9453125 C-92.71828125 92.2646875 -92.12015625 91.5840625 -91.50390625 90.8828125 C-94.14390625 90.2228125 -96.78390625 89.5628125 -99.50390625 88.8828125 C-99.50390625 67.4328125 -99.50390625 45.9828125 -99.50390625 23.8828125 C-96.46966644 22.3656926 -93.32885831 22.69841993 -90.00390625 22.6953125 C-89.31425781 22.68306641 -88.62460938 22.67082031 -87.9140625 22.65820312 C-86.10913131 22.65292555 -84.30472783 22.76096792 -82.50390625 22.8828125 C-80.50390625 24.8828125 -80.50390625 24.8828125 -80.26339722 26.86965942 C-80.27005905 28.08877518 -80.27005905 28.08877518 -80.27685547 29.33251953 C-80.27700653 30.25332306 -80.27715759 31.17412659 -80.27731323 32.12283325 C-80.2876358 33.11870453 -80.29795837 34.11457581 -80.30859375 35.140625 C-80.31142365 36.15881317 -80.31425354 37.17700134 -80.31716919 38.2260437 C-80.32838855 41.4867515 -80.35349629 44.74718734 -80.37890625 48.0078125 C-80.38893378 50.21483979 -80.39806002 52.42187138 -80.40625 54.62890625 C-80.42833362 60.04698022 -80.46287543 65.46485021 -80.50390625 70.8828125 C-74.56390625 70.8828125 -68.62390625 70.8828125 -62.50390625 70.8828125 C-62.50390625 68.5728125 -62.50390625 66.2628125 -62.50390625 63.8828125 C-60.76351816 57.48432688 -57.39508415 53.21817473 -52.50390625 48.8828125 C-55.96890625 47.3978125 -55.96890625 47.3978125 -59.50390625 45.8828125 C-59.62890625 42.5078125 -59.62890625 42.5078125 -59.50390625 38.8828125 C-58.84390625 38.2228125 -58.18390625 37.5628125 -57.50390625 36.8828125 C-56.86369378 35.05695289 -56.86369378 35.05695289 -56.43359375 32.96875 C-56.25957031 32.20820312 -56.08554688 31.44765625 -55.90625 30.6640625 C-55.73222656 29.87 -55.55820313 29.0759375 -55.37890625 28.2578125 C-55.19714844 27.45601562 -55.01539063 26.65421875 -54.828125 25.828125 C-54.38019836 23.84781774 -53.94120021 21.8654948 -53.50390625 19.8828125 C-54.34695312 19.79644531 -55.19 19.71007812 -56.05859375 19.62109375 C-57.15429688 19.48058594 -58.25 19.34007813 -59.37890625 19.1953125 C-60.46945313 19.06769531 -61.56 18.94007812 -62.68359375 18.80859375 C-65.50390625 17.8828125 -65.50390625 17.8828125 -66.88671875 15.30078125 C-67.09039062 14.50285156 -67.2940625 13.70492187 -67.50390625 12.8828125 C-63.84775287 7.99136606 -58.97892814 7.3792113 -53.33203125 6.0859375 C-52.33564636 5.8474408 -51.33926147 5.60894409 -50.31268311 5.36322021 C-48.20617625 4.86236926 -46.09798138 4.36857261 -43.98828125 3.88134766 C-40.77548476 3.13780644 -37.56935378 2.36961625 -34.36328125 1.59765625 C-32.31154728 1.11310164 -30.25947383 0.6299818 -28.20703125 0.1484375 C-27.2546759 -0.07962585 -26.30232056 -0.30768921 -25.32110596 -0.54266357 C-16.26931693 -2.61067379 -8.98897249 -2.29113104 0 0 Z M-45.50390625 21.8828125 C-45.55772731 24.50808439 -45.59748938 27.13225963 -45.62890625 29.7578125 C-45.64566406 30.50417969 -45.66242188 31.25054687 -45.6796875 32.01953125 C-45.69730215 33.97475711 -45.60710814 35.93023271 -45.50390625 37.8828125 C-44.84390625 38.5428125 -44.18390625 39.2028125 -43.50390625 39.8828125 C-43.50390625 33.9428125 -43.50390625 28.0028125 -43.50390625 21.8828125 C-44.16390625 21.8828125 -44.82390625 21.8828125 -45.50390625 21.8828125 Z M-43.50390625 39.8828125 C-43.50390625 41.5328125 -43.50390625 43.1828125 -43.50390625 44.8828125 C-40.86390625 44.8828125 -38.22390625 44.8828125 -35.50390625 44.8828125 C-38.22168728 42.81862671 -38.22168728 42.81862671 -40.62890625 42.3828125 C-41.24765625 42.2178125 -41.86640625 42.0528125 -42.50390625 41.8828125 C-42.83390625 41.2228125 -43.16390625 40.5628125 -43.50390625 39.8828125 Z M-25.50390625 47.8828125 C-24.57578125 48.9759375 -23.64765625 50.0690625 -22.69140625 51.1953125 C-22.16933594 51.81019531 -21.64726562 52.42507812 -21.109375 53.05859375 C-19.63218156 54.73705929 -18.10351494 56.32163284 -16.50390625 57.8828125 C-16.17777344 57.41230469 -15.85164063 56.94179687 -15.515625 56.45703125 C-15.07863281 55.83441406 -14.64164063 55.21179688 -14.19140625 54.5703125 C-13.76214844 53.95542969 -13.33289063 53.34054688 -12.890625 52.70703125 C-11.50390625 50.8828125 -11.50390625 50.8828125 -8.50390625 47.8828125 C-14.11390625 47.8828125 -19.72390625 47.8828125 -25.50390625 47.8828125 Z M2.80859375 64.0703125 C1.04695038 66.50305811 1.04416729 67.94529052 1.49609375 70.8828125 C4.2550501 73.17919029 4.2550501 73.17919029 7.05859375 72.6328125 C9.64609942 72.04473198 9.64609942 72.04473198 11.49609375 69.8828125 C11.40497437 67.34329706 11.40497437 67.34329706 10.49609375 64.8828125 C6.70521443 62.34558741 6.70521443 62.34558741 2.80859375 64.0703125 Z " fill="#F1F1F0" transform="translate(180.50390625,22.1171875)"/>
<path d="M0 0 C2.95748936 2.00686778 3.83999994 4.69846138 5 8 C5.45375 6.865625 5.9075 5.73125 6.375 4.5625 C8 1 8 1 10 0 C16.47058824 -0.35294118 16.47058824 -0.35294118 20 2 C20.6875 4.125 20.6875 4.125 21 6 C21.88751953 5.87431641 21.88751953 5.87431641 22.79296875 5.74609375 C27.19245057 5.17911322 30.64444307 5.03209846 35 6 C36.67004829 5.68404492 38.33637583 5.34820041 40 5 C43.90472714 4.71370636 47.09159765 4.62838086 50.75 6.125 C51.4925 6.41375 52.235 6.7025 53 7 C54.35085807 6.36959957 55.68252676 5.69748583 57 5 C63.33333333 4.55555556 63.33333333 4.55555556 67 7 C68.85266073 6.70514846 68.85266073 6.70514846 71 6 C82.32394366 4.11267606 82.32394366 4.11267606 86.125 6.125 C86.74375 6.41375 87.3625 6.7025 88 7 C89.35085807 6.36959957 90.68252676 5.69748583 92 5 C95.02823163 4.80670862 97.598153 4.91178968 100.5625 5.5625 C102.95245897 6.15082492 102.95245897 6.15082492 105.12109375 5.54296875 C108.93105903 4.82439999 112.63114153 4.77672787 116.5 4.75 C117.24636719 4.729375 117.99273437 4.70875 118.76171875 4.6875 C123.37109015 4.65486728 126.18706939 5.12517137 130 8 C130.70125 7.505 131.4025 7.01 132.125 6.5 C136.14055852 4.40492599 139.20152815 4.6052135 143.5625 5.5625 C145.98241511 6.15423291 145.98241511 6.15423291 148.3046875 5.515625 C151.17614618 4.96630247 153.6492474 5.03758297 156.5625 5.1875 C160.90086387 5.36518198 160.90086387 5.36518198 164.375 2.9375 C164.91125 2.298125 165.4475 1.65875 166 1 C168.4375 0.8125 168.4375 0.8125 171 2 C173.9394609 5.01174272 175.86299072 7.71211274 176.3125 11.9375 C176.1578125 12.9584375 176.1578125 12.9584375 176 14 C174.68 14.66 173.36 15.32 172 16 C172.66 16.70125 173.32 17.4025 174 18.125 C176.32030013 21.46043144 176.44143161 23.02711547 176 27 C175.67 27.66 175.34 28.32 175 29 C171.59452752 29.73451367 168.76772402 30.13541488 165.3203125 29.52734375 C161.20327311 28.87346102 157.22292845 28.85428417 153.0625 28.875 C152.28970703 28.87113281 151.51691406 28.86726563 150.72070312 28.86328125 C147.1073266 28.86939009 143.75875179 29.03594106 140.171875 29.5703125 C136.32172914 30.09188398 133.66921711 29.15112694 130 28 C129.34 28.33 128.68 28.66 128 29 C126.04944715 29.07341876 124.09635192 29.08354231 122.14453125 29.0625 C120.96439453 29.05476563 119.78425781 29.04703125 118.56835938 29.0390625 C116.08398225 29.01322394 113.5996072 28.9871855 111.11523438 28.9609375 C103.95781205 28.85469804 103.95781205 28.85469804 96.8515625 29.55859375 C93.37679688 30.09646843 91.21101486 29.3313964 88 28 C87.401875 28.969375 86.80375 29.93875 86.1875 30.9375 C84 34 84 34 81 35 C76.32538484 35.53399162 73.01796649 35.62324479 68.9375 33.125 C67 31 67 31 67 29 C66.02160156 29.12568359 66.02160156 29.12568359 65.0234375 29.25390625 C60.07993468 29.82991912 55.90368479 30.06601843 51 29 C45.88726573 27.92203979 45.88726573 27.92203979 41 29 C38.24440432 29.26160718 35.51159818 29.46719439 32.75 29.625 C31.62271484 29.70234375 31.62271484 29.70234375 30.47265625 29.78125 C26.12989683 30.03893555 22.29462782 29.84754069 18 29 C16.948125 29 15.89625 29 14.8125 29 C12 29 12 29 9 28 C8.67 28.33 8.34 28.66 8 29 C5.52836314 29.12682623 3.09709389 29.18520251 0.625 29.1875 C-0.06078125 29.19974609 -0.7465625 29.21199219 -1.453125 29.22460938 C-5.19296797 29.23552331 -6.8099737 29.1266842 -10 27 C-10.66805113 23.06071845 -10.46287924 19.05165518 -10.4375 15.0625 C-10.45748047 13.95197266 -10.47746094 12.84144531 -10.49804688 11.69726562 C-10.49740234 10.63314453 -10.49675781 9.56902344 -10.49609375 8.47265625 C-10.49794678 7.49562744 -10.4997998 6.51859863 -10.50170898 5.51196289 C-10 3 -10 3 -8.16040039 1.18139648 C-5.24191763 -0.41455086 -3.27659994 -0.41828935 0 0 Z " fill="#F2F2F2" transform="translate(121,122)"/>
<path d="M0 0 C0.70543945 0.14679199 1.41087891 0.29358398 2.13769531 0.44482422 C4.10990107 0.91028041 6.04947784 1.45135606 8 2 C9.64934908 2.4015484 11.30053059 2.79561795 12.953125 3.18359375 C13.81462158 3.38766846 14.67611816 3.59174316 15.5637207 3.80200195 C16.45019287 4.01171631 17.33666504 4.22143066 18.25 4.4375 C25.84699567 6.23971429 33.43350866 8.07312953 41 10 C41 10.66 41 11.32 41 12 C33.41 12.99 25.82 13.98 18 15 C18 21.93 18 28.86 18 36 C8.85807814 40.20318247 1.39416859 41.49403054 -8.6875 41.5 C-9.73156006 41.50580078 -10.77562012 41.51160156 -11.85131836 41.51757812 C-28.7487539 41.2512461 -28.7487539 41.2512461 -34 36 C-34.31884766 34.02880859 -34.31884766 34.02880859 -34.4140625 31.6484375 C-34.45273438 30.79765625 -34.49140625 29.946875 -34.53125 29.0703125 C-34.5621875 28.18085937 -34.593125 27.29140625 -34.625 26.375 C-34.66367188 25.4778125 -34.70234375 24.580625 -34.7421875 23.65625 C-34.83658776 21.43784395 -34.91938805 19.21894987 -35 17 C-37.64 16.34 -40.28 15.68 -43 15 C-43.02908357 18.41664873 -43.04682691 21.8332655 -43.0625 25.25 C-43.07087891 26.21808594 -43.07925781 27.18617187 -43.08789062 28.18359375 C-43.09111328 29.11816406 -43.09433594 30.05273438 -43.09765625 31.015625 C-43.10289307 31.87446289 -43.10812988 32.73330078 -43.11352539 33.61816406 C-43.00539986 35.88670744 -42.63582423 37.82631715 -42 40 C-42.66 40 -43.32 40 -44 40 C-44.33 40.66 -44.66 41.32 -45 42 C-45.66 42 -46.32 42 -47 42 C-47 41.34 -47 40.68 -47 40 C-48.32 40 -49.64 40 -51 40 C-50.70222656 39.50242188 -50.40445313 39.00484375 -50.09765625 38.4921875 C-48.62220627 35.14223346 -48.0588012 31.70816566 -47.4375 28.125 C-47.31181641 27.43019531 -47.18613281 26.73539063 -47.05664062 26.01953125 C-46.33709095 22.01868437 -45.66013138 18.01108401 -45 14 C-48.63 13.01 -52.26 12.02 -56 11 C-53.13536853 9.56768427 -51.05480857 8.63093287 -48.06445312 7.83911133 C-47.30265747 7.63582718 -46.54086182 7.43254303 -45.75598145 7.22309875 C-44.93932007 7.01154648 -44.12265869 6.7999942 -43.28125 6.58203125 C-42.42752808 6.36052902 -41.57380615 6.13902679 -40.69421387 5.91081238 C-38.88606028 5.4449613 -37.07715969 4.98200144 -35.26757812 4.52172852 C-33.43465509 4.05201774 -31.60385673 3.57392996 -29.77539062 3.0871582 C-10.14238529 -2.13918762 -10.14238529 -2.13918762 0 0 Z " fill="#0D0D0C" transform="translate(175,25)"/>
<path d="M0 0 C3.3 0 6.6 0 10 0 C10.86926371 7.50792859 11.15879239 14.87737235 11.17700195 22.43188477 C11.18357315 23.63498795 11.19014435 24.83809113 11.19691467 26.07765198 C11.21651426 30.03223049 11.22829712 33.98679557 11.23828125 37.94140625 C11.24233694 39.31485449 11.24645408 40.68830254 11.25063133 42.06175041 C11.26963624 48.5197031 11.28387661 54.9776447 11.2922433 61.43561989 C11.30199637 68.83688123 11.32828499 76.23784199 11.36874419 83.63899761 C11.39911089 89.39568287 11.41373145 95.15228293 11.41702431 100.90904659 C11.4193515 104.33068625 11.42800139 107.7520032 11.45348549 111.17355537 C11.54636732 125.63205858 11.41087907 139.13315661 7 153 C5.68 153.33 4.36 153.66 3 154 C-0.73920033 141.14360066 -1.50661781 129.27557367 -1.25 115.9375 C-1.2298693 114.08791034 -1.21163034 112.2382991 -1.1953125 110.38867188 C-1.15191742 105.92523249 -1.0832684 101.46286618 -1 97 C-1.99 97 -2.98 97 -4 97 C-4.02505615 96.22285645 -4.0501123 95.44571289 -4.07592773 94.64501953 C-4.19166796 91.13816931 -4.31449352 87.63160255 -4.4375 84.125 C-4.47681641 82.90167969 -4.51613281 81.67835937 -4.55664062 80.41796875 C-4.59853516 79.25136719 -4.64042969 78.08476563 -4.68359375 76.8828125 C-4.72025146 75.80402832 -4.75690918 74.72524414 -4.79467773 73.61376953 C-4.83376643 71.01930464 -4.83376643 71.01930464 -6 69 C-6.100454 67.35138741 -6.1383474 65.69877487 -6.14526367 64.04711914 C-6.15483345 62.50025169 -6.15483345 62.50025169 -6.16459656 60.9221344 C-6.16570938 59.80443161 -6.1668222 58.68672882 -6.16796875 57.53515625 C-6.17129715 56.39090683 -6.17462555 55.24665741 -6.17805481 54.06773376 C-6.18312468 51.64419966 -6.18546312 49.22065855 -6.18530273 46.79711914 C-6.18748886 43.08142646 -6.20564323 39.36603072 -6.22460938 35.65039062 C-6.22754329 33.29948019 -6.2295281 30.94856833 -6.23046875 28.59765625 C-6.23765427 27.48197769 -6.24483978 26.36629913 -6.25224304 25.21681213 C-6.24916641 24.18241501 -6.24608978 23.14801788 -6.24291992 22.08227539 C-6.24434494 21.17119522 -6.24576996 20.26011505 -6.24723816 19.32142639 C-6 17 -6 17 -4 14 C-3.34 14 -2.68 14 -2 14 C-1.34 9.38 -0.68 4.76 0 0 Z " fill="#0E0D0A" transform="translate(304,12)"/>
<path d="M0 0 C1.423125 0.7425 1.423125 0.7425 2.875 1.5 C2.875 0.84 2.875 0.18 2.875 -0.5 C7.165 -0.5 11.455 -0.5 15.875 -0.5 C15.99914511 5.47730032 16.08959663 11.45384052 16.1496582 17.43212891 C16.17471104 19.46318647 16.2087632 21.4941547 16.25219727 23.52490234 C16.31325687 26.45432648 16.34130227 29.38255279 16.36328125 32.3125 C16.38908768 33.21178223 16.4148941 34.11106445 16.44148254 35.03759766 C16.44429431 41.44273664 14.88236306 45.49729094 10.875 50.5 C6.05141732 55.27385502 0.30560837 55.93967 -6.25 56 C-6.91878174 56.00644531 -7.58756348 56.01289063 -8.27661133 56.01953125 C-13.83836218 55.87697497 -18.62338516 54.66073545 -22.90234375 50.96484375 C-26.125 46.72222222 -26.125 46.72222222 -26.125 44.5 C-24.88323305 43.79773859 -23.63114401 43.11370891 -22.375 42.4375 C-21.67890625 42.05464844 -20.9828125 41.67179687 -20.265625 41.27734375 C-17.72522924 40.35482777 -16.61503087 40.5313622 -14.125 41.5 C-13.2278125 42.2734375 -13.2278125 42.2734375 -12.3125 43.0625 C-9.104345 45.17071614 -6.88465046 44.96171146 -3.125 44.5 C-0.11551026 42.97662048 -0.11551026 42.97662048 1.875 40.5 C2.29370553 37.83071879 2.29370553 37.83071879 1.875 35.5 C0.885 35.995 0.885 35.995 -0.125 36.5 C-13.36080396 37.83266676 -13.36080396 37.83266676 -18.85546875 35.18359375 C-23.60508479 31.20033227 -26.60671944 26.59441645 -27.3984375 20.33984375 C-27.63635963 15.00489749 -26.90969375 10.11851646 -24.125 5.5 C-17.60035435 -1.59535933 -9.12125821 -3.94634029 0 0 Z M-8.875 13.6875 C-10.55745241 16.12705599 -10.57137471 17.59856437 -10.125 20.5 C-7.287422 22.85014158 -7.287422 22.85014158 -4 22.1875 C-1.24413578 21.79355679 -1.24413578 21.79355679 -0.125 20.5 C0.17478682 17.65202522 0.27571289 16.08103368 -1.375 13.6875 C-4.0258605 11.8887018 -6.2241395 11.8887018 -8.875 13.6875 Z " fill="#0B0B0B" transform="translate(394.125,72.5)"/>
<path d="M0 0 C0.78375 0.495 1.5675 0.99 2.375 1.5 C2.705 0.84 3.035 0.18 3.375 -0.5 C7.665 -0.5 11.955 -0.5 16.375 -0.5 C16.375 11.71 16.375 23.92 16.375 36.5 C12.085 36.5 7.795 36.5 3.375 36.5 C3.045 35.51 2.715 34.52 2.375 33.5 C1.33859375 34.23089844 1.33859375 34.23089844 0.28125 34.9765625 C-3.11698049 36.757893 -5.3097055 36.90174272 -9.125 36.875 C-10.2284375 36.88273437 -11.331875 36.89046875 -12.46875 36.8984375 C-16.83930576 36.34670893 -19.34313329 34.78464733 -22.42578125 31.6953125 C-27.16122234 25.2100831 -27.80696853 19.38658311 -26.625 11.5 C-24.89807399 6.06977711 -21.1130815 2.74669725 -16.625 -0.5 C-11.01341426 -2.37052858 -5.45214398 -2.25605958 0 0 Z M-8.3125 13.6875 C-10.07414337 16.12024561 -10.07692646 17.56247802 -9.625 20.5 C-6.86604365 22.79637779 -6.86604365 22.79637779 -4.0625 22.25 C-1.47499433 21.66191948 -1.47499433 21.66191948 0.375 19.5 C0.28388062 16.96048456 0.28388062 16.96048456 -0.625 14.5 C-4.41587932 11.96277491 -4.41587932 11.96277491 -8.3125 13.6875 Z " fill="#070707" transform="translate(191.625,72.5)"/>
<path d="M0 0 C4.72571721 2.68216382 6.68692766 4.82230271 8.5625 9.9375 C8.5625 12.9075 8.5625 15.8775 8.5625 18.9375 C-0.0175 18.9375 -8.5975 18.9375 -17.4375 18.9375 C-15.89707252 23.74054035 -15.89707252 23.74054035 -13.4375 25.9375 C-9.53012486 26.3061203 -7.23603529 26.44388823 -3.875 24.3125 C-1.4375 22.9375 -1.4375 22.9375 1.6875 23.625 C4.5625 24.9375 4.5625 24.9375 7.5625 26.9375 C6.39768646 30.43194061 4.17887054 32.88077292 1.15625 34.94921875 C-2.55893547 36.36479394 -6.05055418 36.4578456 -10 36.5 C-11.0984021 36.52175293 -11.0984021 36.52175293 -12.21899414 36.54394531 C-17.37493738 36.44836775 -20.33324647 35.27489002 -24.4375 31.9375 C-29.77547205 25.85814294 -30.89719799 22.1189759 -30.74609375 14.1015625 C-30.1040843 7.51893394 -25.88481831 4.17898837 -21.12109375 0.13671875 C-15.11101641 -4.14424121 -6.32203042 -2.86085946 0 0 Z " fill="#0E0E0E" transform="translate(152.4375,73.0625)"/>
<path d="M0 0 C3.30435122 3.44220145 3.35452788 6.05588134 3.29296875 10.734375 C3.2784668 12.67763672 3.2784668 12.67763672 3.26367188 14.66015625 C3.23860783 16.02344354 3.21321302 17.38672479 3.1875 18.75 C3.17244518 20.12889184 3.15875817 21.50779935 3.14648438 22.88671875 C3.11111909 26.25820915 3.06175904 29.62890654 3 33 C-0.96 33 -4.92 33 -9 33 C-9.03738281 31.45828125 -9.07476562 29.9165625 -9.11328125 28.328125 C-9.1789408 26.302059 -9.24538814 24.27601842 -9.3125 22.25 C-9.33505859 21.23421875 -9.35761719 20.2184375 -9.38085938 19.171875 C-9.4340332 17.70234375 -9.4340332 17.70234375 -9.48828125 16.203125 C-9.51446533 15.30239258 -9.54064941 14.40166016 -9.56762695 13.47363281 C-10.08256868 10.52761952 -10.90181196 9.11732045 -13 7 C-17.5969416 6.37305306 -17.5969416 6.37305306 -21.68676758 8.19458008 C-23.45879351 10.63074512 -23.42894655 12.32786497 -23.51171875 15.32421875 C-23.54716797 16.35224609 -23.58261719 17.38027344 -23.61914062 18.43945312 C-23.65297852 20.04723633 -23.65297852 20.04723633 -23.6875 21.6875 C-23.72166016 22.77095703 -23.75582031 23.85441406 -23.79101562 24.97070312 C-23.8735375 27.64676977 -23.93844386 30.32336903 -24 33 C-27.96 33 -31.92 33 -36 33 C-36 21.12 -36 9.24 -36 -3 C-32.04 -3 -28.08 -3 -24 -3 C-24 -2.01 -24 -1.02 -24 0 C-23.13375 -0.7115625 -23.13375 -0.7115625 -22.25 -1.4375 C-15.31339616 -6.254586 -6.56012356 -4.71281604 0 0 Z " fill="#070707" transform="translate(289,75)"/>
<path d="M0 0 C3.90912145 1.8247375 6.41328045 3.48104372 8.6796875 7.23828125 C9.02026367 10.35449219 9.02026367 10.35449219 8.97265625 13.97265625 C8.9581543 15.91591797 8.9581543 15.91591797 8.94335938 17.8984375 C8.91829533 19.26172479 8.89290052 20.62500604 8.8671875 21.98828125 C8.85213268 23.36717309 8.83844567 24.7460806 8.82617188 26.125 C8.79080659 29.4964904 8.74144654 32.86718779 8.6796875 36.23828125 C4.7196875 36.23828125 0.7596875 36.23828125 -3.3203125 36.23828125 C-3.35769531 34.61277344 -3.39507812 32.98726562 -3.43359375 31.3125 C-3.49924356 29.18357029 -3.56569124 27.05466508 -3.6328125 24.92578125 C-3.65537109 23.85392578 -3.67792969 22.78207031 -3.70117188 21.67773438 C-3.7543457 20.13569336 -3.7543457 20.13569336 -3.80859375 18.5625 C-3.83477783 17.61463623 -3.86096191 16.66677246 -3.88793945 15.69018555 C-4.38922812 12.84747404 -5.20596224 12.09945802 -7.3203125 10.23828125 C-7.3203125 9.57828125 -7.3203125 8.91828125 -7.3203125 8.23828125 C-12.1361361 9.21300173 -12.1361361 9.21300173 -16.01879883 11.99121094 C-17.56084757 14.65356633 -17.7430013 16.37877612 -17.83203125 19.44140625 C-17.86748047 20.42109375 -17.90292969 21.40078125 -17.93945312 22.41015625 C-17.97329102 23.93382812 -17.97329102 23.93382812 -18.0078125 25.48828125 C-18.04197266 26.51953125 -18.07613281 27.55078125 -18.11132812 28.61328125 C-18.19368465 31.15456824 -18.25867843 33.69640726 -18.3203125 36.23828125 C-22.2803125 36.23828125 -26.2403125 36.23828125 -30.3203125 36.23828125 C-30.3203125 24.35828125 -30.3203125 12.47828125 -30.3203125 0.23828125 C-26.0303125 0.23828125 -21.7403125 0.23828125 -17.3203125 0.23828125 C-17.3203125 0.89828125 -17.3203125 1.55828125 -17.3203125 2.23828125 C-16.7015625 1.74328125 -16.0828125 1.24828125 -15.4453125 0.73828125 C-10.41758253 -1.67502914 -5.31008577 -1.74320997 0 0 Z " fill="#080808" transform="translate(352.3203125,71.76171875)"/>
<path d="M0 0 C4.29 0 8.58 0 13 0 C13 15.51 13 31.02 13 47 C19.6 47 26.2 47 33 47 C33 50.63 33 54.26 33 58 C22.11 58 11.22 58 0 58 C0 38.86 0 19.72 0 0 Z " fill="#070707" transform="translate(84,50)"/>
<path d="M0 0 C6.02491593 0.89374844 11.86036674 1.8881869 17.6875 3.6875 C26.73907659 6.21472082 34.1526628 3.53605855 42.9609375 0.83984375 C46 0 46 0 49 0 C49.495 9.405 49.495 9.405 50 19 C41.23443275 23.4382619 34.11276769 24.53871689 24.375 24.625 C23.32707275 24.64755859 22.27914551 24.67011719 21.19946289 24.69335938 C14.00116363 24.62562661 5.37314474 23.37314474 0 18 C-0.08631874 16.65732587 -0.10706473 15.31025678 -0.09765625 13.96484375 C-0.09443359 13.15595703 -0.09121094 12.34707031 -0.08789062 11.51367188 C-0.07951172 10.66353516 -0.07113281 9.81339844 -0.0625 8.9375 C-0.05798828 8.08349609 -0.05347656 7.22949219 -0.04882812 6.34960938 C-0.03700373 4.23304337 -0.01906769 2.11651315 0 0 Z " fill="#040404" transform="translate(142,42)"/>
<path d="M0 0 C15.11644004 6.64235248 29.038182 3.88478501 44.00537109 -1.75146484 C49.33283017 -3.7511548 53.48533309 -5.10769631 59.19140625 -4.59765625 C56.59278753 -1.71207351 54.09763542 -0.75647926 50.4375 0.51953125 C48.03001668 1.46577687 45.87444232 2.620277 43.62890625 3.90234375 C33.01033933 9.92373823 21.47850466 13.43423071 9.19140625 12.40234375 C8.26972656 12.33273438 7.34804687 12.263125 6.3984375 12.19140625 C-1.1984542 11.28820909 -7.03007532 8.6292615 -13.6796875 5.05859375 C-20.83108114 1.27308701 -26.48653367 1.03629798 -34.49609375 1.02734375 C-35.62982422 1.00285156 -36.76355469 0.97835937 -37.93164062 0.953125 C-44.55530899 0.93021894 -49.51346636 1.69618488 -55.53735352 4.44482422 C-58.99517983 5.90258997 -62.20480519 6.24556682 -65.93359375 6.65234375 C-67.23554688 6.801875 -68.5375 6.95140625 -69.87890625 7.10546875 C-70.84570312 7.2034375 -71.8125 7.30140625 -72.80859375 7.40234375 C-70.37554673 3.75277321 -68.87517282 3.42746948 -64.80859375 1.96484375 C-60.80696006 0.50851149 -56.88600171 -0.99307196 -52.99609375 -2.72265625 C-48.64457161 -4.47466025 -44.27450121 -5.46619355 -39.68359375 -6.34765625 C-39.02641357 -6.47543457 -38.3692334 -6.60321289 -37.69213867 -6.73486328 C-24.11721524 -9.14690141 -12.26666871 -5.58609595 0 0 Z " fill="#131313" transform="translate(242.80859375,171.59765625)"/>
<path d="M0 0 C-0.60698743 4.12751449 -2.03810791 7.3321148 -4 11 C-5.13888672 10.93039063 -5.13888672 10.93039063 -6.30078125 10.859375 C-7.29464844 10.82328125 -8.28851563 10.7871875 -9.3125 10.75 C-10.79169922 10.68039063 -10.79169922 10.68039063 -12.30078125 10.609375 C-15.07675698 10.72790965 -15.07675698 10.72790965 -16.63671875 12.71289062 C-18.20585919 15.34535975 -18.4189176 16.94049719 -18.51171875 19.984375 C-18.54716797 20.91894531 -18.58261719 21.85351562 -18.61914062 22.81640625 C-18.65297852 24.26853516 -18.65297852 24.26853516 -18.6875 25.75 C-18.72166016 26.73355469 -18.75582031 27.71710938 -18.79101562 28.73046875 C-18.87334309 31.15324858 -18.93835225 33.5766058 -19 36 C-22.96 36 -26.92 36 -31 36 C-31 24.12 -31 12.24 -31 0 C-27.04 0 -23.08 0 -19 0 C-18.67 1.32 -18.34 2.64 -18 4 C-17.13375 3.0409375 -17.13375 3.0409375 -16.25 2.0625 C-11.7490587 -2.06336286 -5.6518277 -1.88394257 0 0 Z " fill="#070707" transform="translate(248,72)"/>
<path d="M0 0 C4.70588235 0.70588235 4.70588235 0.70588235 6 2 C6.10382589 3.61580008 6.13852243 5.23610624 6.14526367 6.85522461 C6.15164352 7.8897728 6.15802338 8.92432098 6.16459656 9.99021912 C6.16570938 11.11622025 6.1668222 12.24222137 6.16796875 13.40234375 C6.17129715 14.55037979 6.17462555 15.69841583 6.17805481 16.88124084 C6.18312901 19.31494749 6.18546298 21.74866112 6.18530273 24.18237305 C6.18748854 27.91792192 6.20563746 31.65317535 6.22460938 35.38867188 C6.22754325 37.74739482 6.22952808 40.10611917 6.23046875 42.46484375 C6.23765427 43.58882065 6.24483978 44.71279755 6.25224304 45.87083435 C6.24916641 46.9085347 6.24608978 47.94623505 6.24291992 49.01538086 C6.24434494 49.93169785 6.24576996 50.84801483 6.24723816 51.792099 C6 54 6 54 4 56 C1.375 55.625 1.375 55.625 -1 55 C-1.02526605 47.32788798 -1.04283123 39.6557866 -1.05493164 31.98364258 C-1.05997377 29.37133381 -1.06680725 26.75902789 -1.07543945 24.14672852 C-1.08751036 20.40119732 -1.09322935 16.65570328 -1.09765625 12.91015625 C-1.10281754 11.73413345 -1.10797882 10.55811066 -1.11329651 9.34645081 C-1.11340981 7.72488319 -1.11340981 7.72488319 -1.11352539 6.07055664 C-1.115746 5.11347305 -1.11796661 4.15638947 -1.12025452 3.17030334 C-1 1 -1 1 0 0 Z " fill="#CB9D1D" transform="translate(301,27)"/>
<path d="M0 0 C1.98 0 3.96 0 6 0 C7.65 4.62 9.3 9.24 11 14 C11.804375 11.875625 12.60875 9.75125 13.4375 7.5625 C15.875 1.125 15.875 1.125 17 0 C18.98 0 20.96 0 23 0 C23 6.93 23 13.86 23 21 C21.35 21.33 19.7 21.66 18 22 C17.67 18.37 17.34 14.74 17 11 C15.68 14.3 14.36 17.6 13 21 C11.68 21 10.36 21 9 21 C7.68 17.37 6.36 13.74 5 10 C4.67 13.63 4.34 17.26 4 21 C2.68 21 1.36 21 0 21 C0 14.07 0 7.14 0 0 Z " fill="#282828" transform="translate(115,126)"/>
<path d="M0 0 C0.98613281 0.13921875 1.97226563 0.2784375 2.98828125 0.421875 C4.47908203 0.61523438 4.47908203 0.61523438 6 0.8125 C6.75925781 0.93109375 7.51851562 1.0496875 8.30078125 1.171875 C8.38181529 4.08910048 8.44129206 7.00407016 8.48828125 9.921875 C8.51341797 10.746875 8.53855469 11.571875 8.56445312 12.421875 C8.6075311 15.98298762 8.62903631 18.49895212 7.05078125 21.734375 C3.9625558 24.27113162 1.1621845 23.42508177 -2.69921875 23.171875 C-3.35921875 21.851875 -4.01921875 20.531875 -4.69921875 19.171875 C-3.58546875 19.23375 -2.47171875 19.295625 -1.32421875 19.359375 C-0.12796875 19.2975 1.06828125 19.235625 2.30078125 19.171875 C2.96078125 18.181875 3.62078125 17.191875 4.30078125 16.171875 C2.28255208 16.26953125 0.26432292 16.3671875 -1.75390625 16.46484375 C-2.39585937 16.36816406 -3.0378125 16.27148438 -3.69921875 16.171875 C-5.75601877 13.08667497 -5.99388689 12.25913996 -6.01171875 8.734375 C-6.02847656 7.97253906 -6.04523438 7.21070313 -6.0625 6.42578125 C-5.41623762 2.41617485 -4.20675614 0.2678687 0 0 Z " fill="#242424" transform="translate(196.69921875,130.828125)"/>
<path d="M0 0 C0.886875 0.020625 1.77375 0.04125 2.6875 0.0625 C4.87589268 0.0625 7.06744218 0.03469935 9.25 -0.125 C11.6875 0.0625 11.6875 0.0625 13.328125 1.15625 C15.35058926 3.99234931 14.97692463 6.3185373 14.875 9.75 C14.84792969 10.92949219 14.82085937 12.10898438 14.79296875 13.32421875 C14.75816406 14.22785156 14.72335937 15.13148438 14.6875 16.0625 C13.3675 16.0625 12.0475 16.0625 10.6875 16.0625 C10.6875 12.1025 10.6875 8.1425 10.6875 4.0625 C9.0375 4.0625 7.3875 4.0625 5.6875 4.0625 C5.6875 8.0225 5.6875 11.9825 5.6875 16.0625 C4.0375 16.3925 2.3875 16.7225 0.6875 17.0625 C0.6875 12.7725 0.6875 8.4825 0.6875 4.0625 C-0.6325 4.3925 -1.9525 4.7225 -3.3125 5.0625 C-3.6425 8.6925 -3.9725 12.3225 -4.3125 16.0625 C-5.6325 16.0625 -6.9525 16.0625 -8.3125 16.0625 C-8.3125 11.1125 -8.3125 6.1625 -8.3125 1.0625 C-6.6625 1.0625 -5.0125 1.0625 -3.3125 1.0625 C-2.3125 0.0625 -2.3125 0.0625 0 0 Z " fill="#1D1D1D" transform="translate(404.3125,130.9375)"/>
<path d="M0 0 C2.5625 0.1875 2.5625 0.1875 4.5625 2.1875 C4.70747985 4.76814129 4.74927545 7.23693884 4.6875 9.8125 C4.67847656 10.51890625 4.66945312 11.2253125 4.66015625 11.953125 C4.63657603 13.69806098 4.60070461 15.44282295 4.5625 17.1875 C3.2425 17.1875 1.9225 17.1875 0.5625 17.1875 C0.5625 12.8975 0.5625 8.6075 0.5625 4.1875 C-0.7575 4.5175 -2.0775 4.8475 -3.4375 5.1875 C-3.7675 8.8175 -4.0975 12.4475 -4.4375 16.1875 C-5.7575 16.1875 -7.0775 16.1875 -8.4375 16.1875 C-8.4375 12.2275 -8.4375 8.2675 -8.4375 4.1875 C-10.0875 4.1875 -11.7375 4.1875 -13.4375 4.1875 C-13.4375 8.4775 -13.4375 12.7675 -13.4375 17.1875 C-14.7575 17.1875 -16.0775 17.1875 -17.4375 17.1875 C-17.4375 11.9075 -17.4375 6.6275 -17.4375 1.1875 C-13.82421875 1.22005208 -10.2109375 1.25260417 -6.59765625 1.28515625 C-3.16996579 1.17923256 -3.16370771 0.24336213 0 0 Z " fill="#212121" transform="translate(243.4375,130.8125)"/>
<path d="M0 0 C2.875 1.875 2.875 1.875 5 4 C5 4.66 5 5.32 5 6 C1.1936543 5.32829194 -2.35206816 4.27253436 -6 3 C-6.2113453 5.3912295 -6.2113453 5.3912295 -5 8 C-2.74172541 9.31768805 -0.46899171 10.26197155 1.96875 11.203125 C4 12 4 12 5 13 C4.94921875 14.8125 4.94921875 14.8125 4.6875 17 C4.56955078 18.0828125 4.56955078 18.0828125 4.44921875 19.1875 C4.30097656 19.785625 4.15273438 20.38375 4 21 C0.54924222 22.72537889 -3.2267517 22.49595093 -7 22 C-9.5625 20.1875 -9.5625 20.1875 -11 18 C-11 17.01 -11 16.02 -11 15 C-9.68 15 -8.36 15 -7 15 C-6.67 15.66 -6.34 16.32 -6 17 C-2.97065509 17.65772428 -2.97065509 17.65772428 0 18 C0.04289755 16.06890419 0.04289755 16.06890419 -1 14 C-3.30368736 12.93347808 -5.64018187 11.93578995 -8 11 C-10.49242943 9.23117911 -10.89791977 8.51040117 -11.5 5.5 C-11 3 -11 3 -8.875 1.1875 C-5.54172756 -0.18928644 -3.57175074 -0.52088032 0 0 Z " fill="#242424" transform="translate(330,126)"/>
<path d="M0 0 C0 0.99 0 1.98 0 3 C-0.7206665 3.08564209 -1.44133301 3.17128418 -2.18383789 3.25952148 C-5.47682642 3.65133606 -8.76966379 4.04440739 -12.0625 4.4375 C-13.19623047 4.57220703 -14.32996094 4.70691406 -15.49804688 4.84570312 C-21.0086998 5.50441091 -26.5109709 6.17943397 -32 7 C-32.02908357 10.41664873 -32.04682691 13.8332655 -32.0625 17.25 C-32.07087891 18.21808594 -32.07925781 19.18617187 -32.08789062 20.18359375 C-32.09272461 21.58544922 -32.09272461 21.58544922 -32.09765625 23.015625 C-32.10551147 24.30388184 -32.10551147 24.30388184 -32.11352539 25.61816406 C-32.00539986 27.88670744 -31.63582423 29.82631715 -31 32 C-31.66 32 -32.32 32 -33 32 C-33.33 32.66 -33.66 33.32 -34 34 C-34.66 34 -35.32 34 -36 34 C-36 33.34 -36 32.68 -36 32 C-37.32 32 -38.64 32 -40 32 C-39.70222656 31.50242187 -39.40445313 31.00484375 -39.09765625 30.4921875 C-37.62220627 27.14223346 -37.0588012 23.70816566 -36.4375 20.125 C-36.31181641 19.43019531 -36.18613281 18.73539063 -36.05664062 18.01953125 C-35.33709095 14.01868437 -34.66013138 10.01108401 -34 6 C-34.66 5.67 -35.32 5.34 -36 5 C-32.56503839 3.8550128 -29.20102945 3.47447336 -25.625 3.0625 C-19.28074694 2.30668124 -12.97695657 1.40736593 -6.671875 0.3671875 C-4 0 -4 0 0 0 Z " fill="#C5A245" transform="translate(164,33)"/>
<path d="M0 0 C1.94140625 0.38671875 1.94140625 0.38671875 4.44140625 2.07421875 C5.94140625 4.38671875 5.94140625 4.38671875 5.94140625 9.38671875 C2.64140625 9.38671875 -0.65859375 9.38671875 -4.05859375 9.38671875 C-3.72859375 10.04671875 -3.39859375 10.70671875 -3.05859375 11.38671875 C-0.74859375 11.38671875 1.56140625 11.38671875 3.94140625 11.38671875 C4.27140625 12.37671875 4.60140625 13.36671875 4.94140625 14.38671875 C1.19541892 16.88404364 -0.62860406 17.00847169 -5.05859375 16.38671875 C-7.85457543 13.37566156 -8.92662413 11.32935892 -9.49609375 7.26171875 C-8.56734907 1.15853943 -6.26246864 -0.33445965 0 0 Z " fill="#181818" transform="translate(217.05859375,131.61328125)"/>
<path d="M0 0 C3.9375 0.6875 3.9375 0.6875 6.4375 2.6875 C8.35581364 6.52412728 8.90394949 9.48259696 7.9375 13.6875 C5.875 16.6875 5.875 16.6875 2.9375 18.6875 C-0.625 19.25 -0.625 19.25 -4.0625 18.6875 C-7.33886793 16.10089374 -8.87191774 14.08510326 -9.4375 9.9375 C-8.78398806 4.27372989 -5.84663268 0.38248999 0 0 Z M-3.75 5.875 C-5.51164337 8.30774561 -5.51442646 9.74997802 -5.0625 12.6875 C-2.30354365 14.98387779 -2.30354365 14.98387779 0.5 14.4375 C3.08750567 13.84941948 3.08750567 13.84941948 4.9375 11.6875 C4.84638062 9.14798456 4.84638062 9.14798456 3.9375 6.6875 C0.14662068 4.15027491 0.14662068 4.15027491 -3.75 5.875 Z " fill="#EBEBEB" transform="translate(187.0625,80.3125)"/>
<path d="M0 0 C3.61363094 0.28342203 4.71040816 0.65571242 7.1875 3.25 C7.578125 6.38671875 7.578125 6.38671875 7.4375 9.9375 C7.40140625 11.11699219 7.3653125 12.29648438 7.328125 13.51171875 C7.25851563 14.86716797 7.25851563 14.86716797 7.1875 16.25 C5.39741533 16.47151549 3.60531838 16.67682213 1.8125 16.875 C0.81476563 16.99101562 -0.18296875 17.10703125 -1.2109375 17.2265625 C-2.06945312 17.23429687 -2.92796875 17.24203125 -3.8125 17.25 C-5.8125 15.25 -5.8125 15.25 -6.0625 12.25 C-5.8125 9.25 -5.8125 9.25 -3.8125 7.25 C-0.1875 7.125 -0.1875 7.125 3.1875 7.25 C3.1875 6.26 3.1875 5.27 3.1875 4.25 C0.5475 4.58 -2.0925 4.91 -4.8125 5.25 C-3.70130761 0.32900512 -3.70130761 0.32900512 0 0 Z " fill="#101010" transform="translate(146.8125,130.75)"/>
<path d="M0 0 C3.34729173 2.42144508 4.76049116 3.87430846 5.625 7.9375 C4.74931432 12.22835983 3.28826203 14.12277073 0 17 C-2.87512628 17.86949383 -5.12487372 17.86949383 -8 17 C-11.33018206 14.0860907 -12.7975678 12.26520125 -13.5 7.875 C-12.94790131 4.70043252 -12.26604788 3.26604788 -10 1 C-6.36217368 -0.21260877 -3.82264001 -0.39544552 0 0 Z M-7.75 4.1875 C-9.43245241 6.62705599 -9.44637471 8.09856437 -9 11 C-6.162422 13.35014158 -6.162422 13.35014158 -2.875 12.6875 C-0.11913578 12.29355679 -0.11913578 12.29355679 1 11 C1.29978682 8.15202522 1.40071289 6.58103368 -0.25 4.1875 C-2.9008605 2.3887018 -5.0991395 2.3887018 -7.75 4.1875 Z " fill="#EBEBEB" transform="translate(393,82)"/>
<path d="M0 0 C1.258125 -0.04125 2.51625 -0.0825 3.8125 -0.125 C4.52019531 -0.14820313 5.22789062 -0.17140625 5.95703125 -0.1953125 C8 0 8 0 11 2 C11.29296875 5.2578125 11.29296875 5.2578125 11.1875 9.125 C11.16042969 10.40632812 11.13335937 11.68765625 11.10546875 13.0078125 C11.07066406 13.99523437 11.03585938 14.98265625 11 16 C9.20866022 16.05391993 7.41686101 16.09275571 5.625 16.125 C4.62726563 16.14820313 3.62953125 16.17140625 2.6015625 16.1953125 C0 16 0 16 -2 14 C-2.25 11 -2.25 11 -2 8 C0 6 0 6 3.625 5.875 C5.295625 5.936875 5.295625 5.936875 7 6 C6.67 5.01 6.34 4.02 6 3 C3.36 3.33 0.72 3.66 -2 4 C-1.34 2.68 -0.68 1.36 0 0 Z " fill="#090909" transform="translate(177,132)"/>
<path d="M0 0 C2 1.125 2 1.125 3 3 C3.1875 6.1875 3.1875 6.1875 3 9 C-0.3 9 -3.6 9 -7 9 C-6.67 9.66 -6.34 10.32 -6 11 C-3.36 11 -0.72 11 2 11 C1.625 12.9375 1.625 12.9375 1 15 C-1.87470493 16.43735246 -3.81894588 16.38172649 -7 16 C-9.52190705 13.8762888 -10.77797468 12.28225858 -11.34765625 8.9921875 C-11.47152095 6.07328895 -11.31704286 3.63408573 -10 1 C-6.74476583 -0.62761708 -3.55758602 -0.5336379 0 0 Z " fill="#1E1E1E" transform="translate(390,132)"/>
<path d="M0 0 C3.3 0 6.6 0 10 0 C10.89749202 7.63334042 11.13275562 15.10740234 11.09765625 22.7890625 C11.0962413 23.97349945 11.09482635 25.1579364 11.09336853 26.37826538 C11.08781209 30.12720361 11.07526782 33.8760801 11.0625 37.625 C11.05747937 40.18098872 11.05291745 42.73697838 11.04882812 45.29296875 C11.03785696 51.52866658 11.02116276 57.76432887 11 64 C10.67 64 10.34 64 10 64 C10 46.51 10 29.02 10 11 C6.37 11 2.74 11 -1 11 C-0.67 7.37 -0.34 3.74 0 0 Z " fill="#302B1F" transform="translate(304,12)"/>
<path d="M0 0 C1.98 0 3.96 0 6 0 C6 6.93 6 13.86 6 21 C4.35 21.33 2.7 21.66 1 22 C0.67 18.37 0.34 14.74 0 11 C-0.99 13.64 -1.98 16.28 -3 19 C-4.33502417 16.78995998 -5.0294127 15.46219963 -4.86328125 12.8515625 C-3.71921941 8.22663165 -2.36194844 4.18709041 0 0 Z " fill="#252525" transform="translate(132,126)"/>
<path d="M0 0 C1.32 0 2.64 0 4 0 C4.99 1.98 5.98 3.96 7 6 C7.66 4.02 8.32 2.04 9 0 C10.65 0 12.3 0 14 0 C8.92307692 18.07692308 8.92307692 18.07692308 5 22 C3.68 22 2.36 22 1 22 C1 21.01 1 20.02 1 19 C1.66 18.67 2.32 18.34 3 18 C3.37332545 13.1467691 2.326184 9.5271321 0.65625 5.05078125 C0 3 0 3 0 0 Z " fill="#0F0F0F" transform="translate(337,132)"/>
<path d="M0 0 C9.1796875 -0.1953125 9.1796875 -0.1953125 12 0 C14 2 14 2 14.1953125 5.0390625 C14.17210937 6.22242188 14.14890625 7.40578125 14.125 8.625 C14.10695313 9.81351563 14.08890625 11.00203125 14.0703125 12.2265625 C14.04710937 13.14179688 14.02390625 14.05703125 14 15 C12.68 15 11.36 15 10 15 C10 11.04 10 7.08 10 3 C8.35 3 6.7 3 5 3 C5 6.96 5 10.92 5 15 C3.35 15.33 1.7 15.66 0 16 C0 10.72 0 5.44 0 0 Z " fill="#4A4A4A" transform="translate(268,132)"/>
<path d="M0 0 C5.71428571 0.71428571 5.71428571 0.71428571 7 2 C7.07313567 4.53049402 7.09247527 7.03304837 7.0625 9.5625 C7.05798828 10.27341797 7.05347656 10.98433594 7.04882812 11.71679688 C7.03700864 13.47790013 7.01907263 15.23896036 7 17 C5.68 17 4.36 17 3 17 C3 12.71 3 8.42 3 4 C1.35 4 -0.3 4 -2 4 C-2 8.29 -2 12.58 -2 17 C-3.32 17 -4.64 17 -6 17 C-6 11.72 -6 6.44 -6 1 C-4.35 1 -2.7 1 -1 1 C-0.67 0.67 -0.34 0.34 0 0 Z " fill="#282828" transform="translate(164,131)"/>
<path d="M0 0 C5.4 -0.36 5.4 -0.36 7.875 1.125 C9.4682099 3.78034983 9.20214032 5.96789518 9 9 C5.7 9 2.4 9 -1 9 C-0.01 10.485 -0.01 10.485 1 12 C2.98 11.67 4.96 11.34 7 11 C7 12.32 7 13.64 7 15 C4.15916359 16.42041821 2.14522722 16.31452272 -1 16 C-3.375 14.5625 -3.375 14.5625 -5 12 C-5.32338916 8.96953066 -5.23343996 6.03471946 -5 3 C-3.68 2.67 -2.36 2.34 -1 2 C-1 3.32 -1 4.64 -1 6 C0.98 6 2.96 6 5 6 C4.67 4.68 4.34 3.36 4 2 C2.68 2 1.36 2 0 2 C0 1.34 0 0.68 0 0 Z " fill="#101010" transform="translate(257,132)"/>
<path d="M0 0 C3.40110553 0.34011055 4.73341421 0.92091421 7.125 3.3125 C7.125 3.9725 7.125 4.6325 7.125 5.3125 C4.485 4.9825 1.845 4.6525 -0.875 4.3125 C-0.875 4.9725 -0.875 5.6325 -0.875 6.3125 C0.259375 6.704375 1.39375 7.09625 2.5625 7.5 C6.125 9.3125 6.125 9.3125 7.0625 12 C7.083125 12.763125 7.10375 13.52625 7.125 14.3125 C4.70830297 16.54329726 3.37484673 17.28190652 0.0625 17.6875 C-2.875 17.3125 -2.875 17.3125 -4.75 15.9375 C-5.875 14.3125 -5.875 14.3125 -5.875 12.3125 C-4.555 12.3125 -3.235 12.3125 -1.875 12.3125 C-1.875 12.9725 -1.875 13.6325 -1.875 14.3125 C-0.225 14.3125 1.425 14.3125 3.125 14.3125 C3.125 13.3225 3.125 12.3325 3.125 11.3125 C2.196875 11.209375 1.26875 11.10625 0.3125 11 C-2.875 10.3125 -2.875 10.3125 -4.8125 9.0625 C-5.875 7.3125 -5.875 7.3125 -5.6875 4.75 C-4.51837938 1.24263815 -3.70906999 0.40315978 0 0 Z " fill="#151515" transform="translate(358.875,130.6875)"/>
<path d="M0 0 C0 1.32 0 2.64 0 4 C-1.8253125 4.4021875 -1.8253125 4.4021875 -3.6875 4.8125 C-8.83716502 6.12943374 -11.94772538 7.62619702 -15.25 11.9375 C-16.67353318 14.42868306 -17.56996246 16.20475596 -18 19 C-19.32 19 -20.64 19 -22 19 C-21.50756199 12.84452483 -20.09462137 8.67001053 -15.3203125 4.55078125 C-10.17300304 0.69582202 -6.46711913 -0.14697998 0 0 Z " fill="#BE9537" transform="translate(107,111)"/>
<path d="M0 0 C4.29 0 8.58 0 13 0 C13 12.21 13 24.42 13 37 C8.71 37 4.42 37 0 37 C0.33 35.68 0.66 34.36 1 33 C1 33.66 1 34.32 1 35 C4.3 35 7.6 35 11 35 C11 23.78 11 12.56 11 1 C7.7 1 4.4 1 1 1 C1 1.99 1 2.98 1 4 C0.34 3.67 -0.32 3.34 -1 3 C-0.67 2.01 -0.34 1.02 0 0 Z " fill="#434343" transform="translate(195,72)"/>
<path d="M0 0 C1.32 0 2.64 0 4 0 C4 0.99 4 1.98 4 3 C4.66 3 5.32 3 6 3 C6 4.32 6 5.64 6 7 C5.34 7 4.68 7 4 7 C4 9.97 4 12.94 4 16 C4.99 16.33 5.98 16.66 7 17 C7 17.99 7 18.98 7 20 C5.02 20 3.04 20 1 20 C-0.32229189 17.35541621 -0.09677194 15.32238699 -0.0625 12.375 C-0.05347656 11.37210938 -0.04445313 10.36921875 -0.03515625 9.3359375 C-0.01775391 8.17964844 -0.01775391 8.17964844 0 7 C-0.99 7 -1.98 7 -3 7 C-3 5.68 -3 4.36 -3 3 C-2.01 3 -1.02 3 0 3 C0 2.01 0 1.02 0 0 Z " fill="#252525" transform="translate(287,128)"/>
<path d="M0 0 C0.99 0 1.98 0 3 0 C3.08103404 2.91722548 3.14051081 5.83219516 3.1875 8.75 C3.21263672 9.575 3.23777344 10.4 3.26367188 11.25 C3.30674985 14.81111262 3.32825506 17.32707712 1.75 20.5625 C-1.33822545 23.09925662 -4.13859675 22.25320677 -8 22 C-8.66 20.68 -9.32 19.36 -10 18 C-8.865625 18.020625 -7.73125 18.04125 -6.5625 18.0625 C-3.18424326 18.41577477 -3.18424326 18.41577477 -2 17 C-1.78889481 14.51658199 -1.62405205 12.05043287 -1.5 9.5625 C-1.13428793 2.26857585 -1.13428793 2.26857585 0 0 Z " fill="#0B0B0B" transform="translate(202,132)"/>
<path d="M0 0 C1.32 0 2.64 0 4 0 C4 1.32 4 2.64 4 4 C4.66 4 5.32 4 6 4 C6 4.66 6 5.32 6 6 C5.34 6 4.68 6 4 6 C4.1135629 7.64666203 4.24117381 9.29236082 4.375 10.9375 C4.44460938 11.85402344 4.51421875 12.77054688 4.5859375 13.71484375 C4.72257812 14.46894531 4.85921875 15.22304687 5 16 C5.66 16.33 6.32 16.66 7 17 C7 17.99 7 18.98 7 20 C4.625 20.125 4.625 20.125 2 20 C0 18 0 18 -0.1953125 15.1796875 C-0.17210937 14.08914062 -0.14890625 12.99859375 -0.125 11.875 C-0.10695313 10.77929688 -0.08890625 9.68359375 -0.0703125 8.5546875 C-0.04710937 7.71164063 -0.02390625 6.86859375 0 6 C-0.66 6 -1.32 6 -2 6 C-2 5.34 -2 4.68 -2 4 C-1.34 4 -0.68 4 0 4 C0 2.68 0 1.36 0 0 Z " fill="#161616" transform="translate(370,128)"/>
<path d="M0 0 C0.66 0.99 1.32 1.98 2 3 C4.32961443 3.35840222 6.66365343 3.68848712 9 4 C12.4375 5.5625 12.4375 5.5625 15 7 C10.91988201 8.36003933 7.82122954 7.14372578 3.8125 6.0625 C1.234375 5.381875 -1.34375 4.70125 -4 4 C-3.67 9.94 -3.34 15.88 -3 22 C1.95 23.98 1.95 23.98 7 26 C2.10396009 27.22400998 0.42419671 26.17036065 -4 24 C-5.54950268 22.45049732 -5.21655193 20.90009406 -5.31640625 18.74609375 C-5.35830078 17.89208984 -5.40019531 17.03808594 -5.44335938 16.15820312 C-5.48267578 15.26037109 -5.52199219 14.36253906 -5.5625 13.4375 C-5.62727539 12.08495117 -5.62727539 12.08495117 -5.69335938 10.70507812 C-5.79978142 8.47021515 -5.90179988 6.23523692 -6 4 C-6.99 3.67 -7.98 3.34 -9 3 C-9 2.34 -9 1.68 -9 1 C-5.95699684 -0.52150158 -3.345915 -0.23899393 0 0 Z " fill="#3E3D3A" transform="translate(146,38)"/>
<path d="M0 0 C2.97 0 5.94 0 9 0 C8.51573772 5.3268851 7.93400486 9.97158737 6 15 C5.01 14.67 4.02 14.34 3 14 C2.05078125 10.83984375 2.05078125 10.83984375 1.3125 6.9375 C1.06113281 5.64714844 0.80976563 4.35679687 0.55078125 3.02734375 C0.36902344 2.02832031 0.18726563 1.02929688 0 0 Z " fill="#D1A21E" transform="translate(304,146)"/>
<path d="M0 0 C0 6.93 0 13.86 0 21 C-0.33 21 -0.66 21 -1 21 C-1.70137978 16.35335895 -2.05947482 11.90999254 -2.03125 7.20703125 C-2.02673828 6.22839111 -2.02222656 5.24975098 -2.01757812 4.24145508 C-2.01177734 3.5017749 -2.00597656 2.76209473 -2 2 C-2.63502441 2.18699463 -3.27004883 2.37398926 -3.92431641 2.56665039 C-6.82092048 3.41164733 -9.72272543 4.23719998 -12.625 5.0625 C-14.12353516 5.50432617 -14.12353516 5.50432617 -15.65234375 5.95507812 C-24.83990996 8.54098252 -24.83990996 8.54098252 -30 7 C-30 6.67 -30 6.34 -30 6 C-29.26394531 5.87882812 -28.52789062 5.75765625 -27.76953125 5.6328125 C-26.79371094 5.46523438 -25.81789062 5.29765625 -24.8125 5.125 C-23.84957031 4.96257813 -22.88664063 4.80015625 -21.89453125 4.6328125 C-19.0791315 4.0173 -16.66696492 3.07181008 -14 2 C-12.13526315 1.57690844 -10.2589694 1.2019699 -8.375 0.875 C-7.43398437 0.70742188 -6.49296875 0.53984375 -5.5234375 0.3671875 C-3 0 -3 0 0 0 Z " fill="#2A2A2A" transform="translate(193,40)"/>
<path d="M0 0 C1.670625 0.061875 1.670625 0.061875 3.375 0.125 C3.5 7.875 3.5 7.875 2.375 10.125 C-0.5 10.25 -0.5 10.25 -3.625 10.125 C-5.625 8.125 -5.625 8.125 -5.875 5.125 C-5.4955869 0.57204274 -4.51633162 0.15573557 0 0 Z " fill="#252525" transform="translate(146.625,137.875)"/>
<path d="M0 0 C1.2065625 0.0309375 1.2065625 0.0309375 2.4375 0.0625 C2.7675 0.7225 3.0975 1.3825 3.4375 2.0625 C-0.0275 3.5475 -0.0275 3.5475 -3.5625 5.0625 C-3.8925 8.6925 -4.2225 12.3225 -4.5625 16.0625 C-5.8825 16.0625 -7.2025 16.0625 -8.5625 16.0625 C-8.5625 11.1125 -8.5625 6.1625 -8.5625 1.0625 C-6.9125 1.0625 -5.2625 1.0625 -3.5625 1.0625 C-2.5625 0.0625 -2.5625 0.0625 0 0 Z " fill="#111111" transform="translate(404.5625,130.9375)"/>
<path d="M0 0 C2.4375 0.3125 2.4375 0.3125 4.4375 2.3125 C4.58247985 4.89314129 4.62427545 7.36193884 4.5625 9.9375 C4.55347656 10.64390625 4.54445312 11.3503125 4.53515625 12.078125 C4.51157603 13.82306098 4.47570461 15.56782295 4.4375 17.3125 C3.1175 17.3125 1.7975 17.3125 0.4375 17.3125 C0.4375 13.0225 0.4375 8.7325 0.4375 4.3125 C-2.5325 3.8175 -2.5325 3.8175 -5.5625 3.3125 C-3.75137927 1.02476855 -2.95529457 0.36040178 0 0 Z " fill="#2D2D2D" transform="translate(243.5625,130.6875)"/>
<path d="M0 0 C3.3 0 6.6 0 10 0 C11.04940487 3.14821462 10.98606526 3.9349491 10.22265625 7.01171875 C9.94711914 8.14770508 9.94711914 8.14770508 9.66601562 9.30664062 C9.46685547 10.09232422 9.26769531 10.87800781 9.0625 11.6875 C8.86720703 12.48478516 8.67191406 13.28207031 8.47070312 14.10351562 C7.98771618 16.07080389 7.4948037 18.03565054 7 20 C5.68 20.33 4.36 20.66 3 21 C1.68 14.73 0.36 8.46 -1 2 C-0.34 2 0.32 2 1 2 C1.19335938 2.92683594 1.38671875 3.85367188 1.5859375 4.80859375 C1.84632813 6.00613281 2.10671875 7.20367187 2.375 8.4375 C2.63023437 9.63246094 2.88546875 10.82742187 3.1484375 12.05859375 C3.42945313 13.02925781 3.71046875 13.99992188 4 15 C4.66 15.33 5.32 15.66 6 16 C6.99 11.05 7.98 6.1 9 1 C6.03 1 3.06 1 0 1 C0 0.67 0 0.34 0 0 Z " fill="#4C4124" transform="translate(304,145)"/>
<path d="M0 0 C0.7940625 -0.01675781 1.588125 -0.03351563 2.40625 -0.05078125 C3.0971875 0.06910156 3.788125 0.18898438 4.5 0.3125 C6.5 3.3125 6.5 3.3125 6.5 6.3125 C1.88 6.3125 -2.74 6.3125 -7.5 6.3125 C-6.18794872 1.06429488 -5.20234396 0.02533609 0 0 Z " fill="#E5E5E5" transform="translate(142.5,78.6875)"/>
<path d="M0 0 C0 0.99 0 1.98 0 3 C-0.73637695 3.08564209 -1.47275391 3.17128418 -2.23144531 3.25952148 C-5.57128469 3.64948539 -8.91064056 4.04344826 -12.25 4.4375 C-13.98830078 4.63956055 -13.98830078 4.63956055 -15.76171875 4.84570312 C-16.87675781 4.97783203 -17.99179688 5.10996094 -19.140625 5.24609375 C-20.16704102 5.36654053 -21.19345703 5.4869873 -22.25097656 5.61108398 C-24.56707201 5.93875184 -26.74901017 6.37603315 -29 7 C-29 6.34 -29 5.68 -29 5 C-30.32 4.67 -31.64 4.34 -33 4 C-31.99582031 3.87882812 -30.99164063 3.75765625 -29.95703125 3.6328125 C-22.1691652 2.68181264 -14.41478298 1.6445708 -6.671875 0.3671875 C-4 0 -4 0 0 0 Z " fill="#98771F" transform="translate(164,33)"/>
<path d="M0 0 C0 1.32 0 2.64 0 4 C-0.928125 4.268125 -1.85625 4.53625 -2.8125 4.8125 C-5.79513615 5.92367817 -7.11865457 6.52454549 -9 9 C-9.33 9.99 -9.66 10.98 -10 12 C-11.32 12 -12.64 12 -14 12 C-13.58443583 7.15175132 -11.62551755 5.11963138 -8 2 C-4.8874587 0.0192919 -3.90120363 0 0 0 Z " fill="#BB912E" transform="translate(106,118)"/>
<path d="M0 0 C1.32 0.33 2.64 0.66 4 1 C4.33 3.31 4.66 5.62 5 8 C1.7 8 -1.6 8 -5 8 C-5.38218767 6.34385343 -5.71395102 4.67542976 -6 3 C-5 2 -5 2 -2.4375 1.9375 C-1.2309375 1.9684375 -1.2309375 1.9684375 0 2 C0 1.34 0 0.68 0 0 Z " fill="#595959" transform="translate(218,133)"/>
<path d="M0 0 C0.12375 0.639375 0.2475 1.27875 0.375 1.9375 C0.684375 2.9584375 0.684375 2.9584375 1 4 C1.66 4.33 2.32 4.66 3 5 C3 9.95 3 14.9 3 20 C3.99 20.33 4.98 20.66 6 21 C4.68 21 3.36 21 2 21 C1.67 17.37 1.34 13.74 1 10 C0.01 12.64 -0.98 15.28 -2 18 C-3.35983509 15.76236091 -4.03642251 14.46273139 -3.828125 11.81640625 C-3.63734375 11.07261719 -3.4465625 10.32882813 -3.25 9.5625 C-3.05148438 8.78132812 -2.85296875 8.00015625 -2.6484375 7.1953125 C-1.91778686 4.72166393 -1.06184486 2.35122791 0 0 Z " fill="#3C3C3C" transform="translate(131,127)"/>
<path d="M0 0 C4.70588235 0.70588235 4.70588235 0.70588235 6 2 C6.07258946 4.18639453 6.08373783 6.37500389 6.0625 8.5625 C6.05347656 9.76003906 6.04445313 10.95757812 6.03515625 12.19140625 C6.02355469 13.11824219 6.01195312 14.04507813 6 15 C4.68 15 3.36 15 2 15 C1.92652344 13.73542969 1.92652344 13.73542969 1.8515625 12.4453125 C1.77679688 11.34960938 1.70203125 10.25390625 1.625 9.125 C1.55539062 8.03445312 1.48578125 6.94390625 1.4140625 5.8203125 C1.26746509 2.86953526 1.26746509 2.86953526 -1 1 C-0.67 0.67 -0.34 0.34 0 0 Z " fill="#0F0F0F" transform="translate(276,132)"/>
<path d="M0 0 C2.31 0 4.62 0 7 0 C7 2.97 7 5.94 7 9 C4.69 9 2.38 9 0 9 C0 6.03 0 3.06 0 0 Z " fill="#CB9D1F" transform="translate(305,13)"/>
<path d="M0 0 C0.99 0 1.98 0 3 0 C4.50156874 3.00313748 4.09281204 5.79067522 4.0625 9.125 C4.05347656 10.40632812 4.04445312 11.68765625 4.03515625 13.0078125 C4.02355469 13.99523437 4.01195312 14.98265625 4 16 C2.68 16 1.36 16 0 16 C0 10.72 0 5.44 0 0 Z " fill="#333333" transform="translate(158,132)"/>
<path d="M0 0 C0.33 0 0.66 0 1 0 C1 4.62 1 9.24 1 14 C-2.63 14 -6.26 14 -10 14 C-9.34 13.01 -8.68 12.02 -8 11 C-7.83286431 8.37468476 -7.83286431 8.37468476 -8 6 C-6.35 6 -4.7 6 -3 6 C-3 7.98 -3 9.96 -3 12 C-2.01 12 -1.02 12 0 12 C0 8.04 0 4.08 0 0 Z " fill="#424242" transform="translate(187,134)"/>
<path d="M0 0 C2.475 0.495 2.475 0.495 5 1 C5.33 2.98 5.66 4.96 6 7 C5.34 7 4.68 7 4 7 C4 6.01 4 5.02 4 4 C3.34 4 2.68 4 2 4 C2 8.62 2 13.24 2 18 C1.34 18 0.68 18 0 18 C0 12.06 0 6.12 0 0 Z " fill="#030303" transform="translate(116,128)"/>
<path d="M0 0 C1.2065625 0.0309375 1.2065625 0.0309375 2.4375 0.0625 C2.4375 3.0325 2.4375 6.0025 2.4375 9.0625 C0.77138095 9.105221 -0.89632885 9.10313832 -2.5625 9.0625 C-3.5625 8.0625 -3.5625 8.0625 -3.6875 4.5625 C-3.52762642 0.08603967 -3.52762642 0.08603967 0 0 Z " fill="#F1F1F1" transform="translate(198.5625,134.9375)"/>
<path d="M0 0 C-2.15344283 2.40243465 -3.96874765 3.60244944 -7 4.6875 C-8.0209375 5.06455078 -8.0209375 5.06455078 -9.0625 5.44921875 C-11 6 -11 6 -14 6 C-13.67 5.34 -13.34 4.68 -13 4 C-15.31 4.33 -17.62 4.66 -20 5 C-13.98067039 0.98711359 -7.16300229 -0.46715232 0 0 Z " fill="#2C2C2C" transform="translate(302,167)"/>
<path d="M0 0 C-0.33 0.99 -0.66 1.98 -1 3 C-5.88878001 5.10723276 -10.8675393 6.60995856 -16 8 C-11.26414083 1.77572795 -8.09991351 -0.37674016 0 0 Z " fill="#F3ECDC" transform="translate(107,115)"/>
<path d="M0 0 C1.32 0 2.64 0 4 0 C4.33 0.66 4.66 1.32 5 2 C7.52733235 2.65555119 7.52733235 2.65555119 10 3 C8.68 3.33 7.36 3.66 6 4 C6 4.66 6 5.32 6 6 C8.97 5.34 11.94 4.68 15 4 C15 4.66 15 5.32 15 6 C11.54924222 7.72537889 7.7732483 7.49595093 4 7 C1.4375 5.1875 1.4375 5.1875 0 3 C0 2.01 0 1.02 0 0 Z " fill="#4F4F4F" transform="translate(319,141)"/>
<path d="M0 0 C1.670625 0.061875 1.670625 0.061875 3.375 0.125 C3.375 0.785 3.375 1.445 3.375 2.125 C1.725 2.125 0.075 2.125 -1.625 2.125 C-1.295 4.105 -0.965 6.085 -0.625 8.125 C-2.5625 8.6875 -2.5625 8.6875 -4.625 9.125 C-5.625 8.125 -5.625 8.125 -5.8125 5.1875 C-5.53057824 0.58277796 -4.55609828 0.15710684 0 0 Z " fill="#212121" transform="translate(180.625,137.875)"/>
<path d="M0 0 C0 1.32 0 2.64 0 4 C-3.3 4.66 -6.6 5.32 -10 6 C-9.67 5.01 -9.34 4.02 -9 3 C-9.66 2.67 -10.32 2.34 -11 2 C-7.17010894 0.19769832 -4.21878192 -0.19622241 0 0 Z " fill="#C29C43" transform="translate(107,111)"/>
<path d="M0 0 C2.64 0 5.28 0 8 0 C8.33 0.99 8.66 1.98 9 3 C5.3558226 5.4294516 3.28758728 5.16179575 -1 5 C-1.33 4.01 -1.66 3.02 -2 2 C-1.34 2 -0.68 2 0 2 C0 1.34 0 0.68 0 0 Z " fill="#454545" transform="translate(213,143)"/>
<path d="M0 0 C0.33 0 0.66 0 1 0 C1 3.3 1 6.6 1 10 C1.66 10 2.32 10 3 10 C3 7.03 3 4.06 3 1 C3.66 0.67 4.32 0.34 5 0 C5 3.63 5 7.26 5 11 C3.35 11.33 1.7 11.66 0 12 C0 8.04 0 4.08 0 0 Z " fill="#606060" transform="translate(405,136)"/>
<path d="M0 0 C1.32 0 2.64 0 4 0 C4.66 2.31 5.32 4.62 6 7 C5.01 7.495 5.01 7.495 4 8 C3.34786708 10.02463255 3.34786708 10.02463255 3 12 C2.49440092 10.56445975 1.9957251 9.1264798 1.5 7.6875 C1.2215625 6.88699219 0.943125 6.08648437 0.65625 5.26171875 C0 3 0 3 0 0 Z " fill="#272727" transform="translate(337,132)"/>
<path d="M0 0 C0.928125 0.165 1.85625 0.33 2.8125 0.5 C5.95621353 1.07748388 5.95621353 1.07748388 9 1 C8 4 8 4 6 5 C0.57692308 5.46153846 0.57692308 5.46153846 -1.875 3.5 C-2.24625 3.005 -2.6175 2.51 -3 2 C-2.01 2 -1.02 2 0 2 C0 1.34 0 0.68 0 0 Z " fill="#202020" transform="translate(256,143)"/>
<path d="M0 0 C2.97 0.495 2.97 0.495 6 1 C5.34 4.96 4.68 8.92 4 13 C3.34 13 2.68 13 2 13 C1.93941406 12.31292969 1.87882812 11.62585938 1.81640625 10.91796875 C1.73261719 10.01691406 1.64882813 9.11585938 1.5625 8.1875 C1.48128906 7.29417969 1.40007812 6.40085938 1.31640625 5.48046875 C1.06510233 2.87256441 1.06510233 2.87256441 0 0 Z " fill="#060606" transform="translate(404,133)"/>
<path d="M0 0 C0.66 0 1.32 0 2 0 C2 0.66 2 1.32 2 2 C3.32 2 4.64 2 6 2 C6.33 3.32 6.66 4.64 7 6 C5.02 6 3.04 6 1 6 C0.67 5.34 0.34 4.68 0 4 C-0.99 4.33 -1.98 4.66 -3 5 C-1.125 1.125 -1.125 1.125 0 0 Z " fill="#7F7F7F" transform="translate(382,132)"/>
<path d="M0 0 C0.33 0.66 0.66 1.32 1 2 C1.66 2.33 2.32 2.66 3 3 C2.67 3.66 2.34 4.32 2 5 C-0.64 5 -3.28 5 -6 5 C-6.66 3.68 -7.32 2.36 -8 1 C-6.865625 1.020625 -5.73125 1.04125 -4.5625 1.0625 C-1.18424326 1.41577477 -1.18424326 1.41577477 0 0 Z " fill="#515151" transform="translate(200,149)"/>
<path d="M0 0 C-1.32 0.33 -2.64 0.66 -4 1 C-4 1.66 -4 2.32 -4 3 C-2.68 3 -1.36 3 0 3 C0.33 4.32 0.66 5.64 1 7 C-0.98 7 -2.96 7 -5 7 C-5.33 6.01 -5.66 5.02 -6 4 C-6.66 3.67 -7.32 3.34 -8 3 C-5.53387212 -0.1151089 -3.89156016 -0.31553191 0 0 Z " fill="#8E8E8E" transform="translate(261,131)"/>
<path d="M0 0 C2.875 -0.125 2.875 -0.125 6 0 C8 2 8 2 8.125 5.125 C8.08375 6.07375 8.0425 7.0225 8 8 C6.68 7.67 5.36 7.34 4 7 C4 5.35 4 3.7 4 2 C2.68 2 1.36 2 0 2 C0 1.34 0 0.68 0 0 Z " fill="#0F0F0F" transform="translate(384,132)"/>
<path d="M0 0 C5.4 -0.36 5.4 -0.36 7.875 1.125 C9.4682099 3.78034983 9.20214032 5.96789518 9 9 C5.7 9 2.4 9 -1 9 C-1 8.67 -1 8.34 -1 8 C1.97 8 4.94 8 8 8 C7.67 6.68 7.34 5.36 7 4 C6.01 4 5.02 4 4 4 C4 3.34 4 2.68 4 2 C2.68 2 1.36 2 0 2 C0 1.34 0 0.68 0 0 Z " fill="#323232" transform="translate(257,132)"/>
<path d="M0 0 C-0.804375 0.28875 -1.60875 0.5775 -2.4375 0.875 C-5.1326468 1.73262568 -5.1326468 1.73262568 -6 4 C-5.34 4.33 -4.68 4.66 -4 5 C-8.02992782 4.44687265 -12.02022924 3.8441938 -16 3 C-11.08294543 0.13171817 -5.53605896 -1.7423757 0 0 Z " fill="#272726" transform="translate(135,33)"/>
<path d="M0 0 C-2.81197457 2.81197457 -5.84011245 2.69902557 -9.625 3.125 C-10.33140625 3.21136719 -11.0378125 3.29773438 -11.765625 3.38671875 C-13.50950141 3.59881183 -15.2546484 3.80040991 -17 4 C-12.81183423 -2.28224866 -6.642115 -1.09225891 0 0 Z " fill="#464646" transform="translate(187,175)"/>
<path d="M0 0 C3.47214266 0.27232491 4.7550428 0.8175428 7.1875 3.25 C7.1875 3.91 7.1875 4.57 7.1875 5.25 C4.2175 4.92 1.2475 4.59 -1.8125 4.25 C-1.8125 3.59 -1.8125 2.93 -1.8125 2.25 C-2.4725 1.92 -3.1325 1.59 -3.8125 1.25 C-2.8125 0.25 -2.8125 0.25 0 0 Z " fill="#3D3D3D" transform="translate(358.8125,130.75)"/>
<path d="M0 0 C3.0625 0.1875 3.0625 0.1875 5.0625 2.1875 C4.0725 2.1875 3.0825 2.1875 2.0625 2.1875 C2.0625 2.8475 2.0625 3.5075 2.0625 4.1875 C-0.2475 4.5175 -2.5575 4.8475 -4.9375 5.1875 C-3.82120474 0.24390669 -3.82120474 0.24390669 0 0 Z " fill="#404040" transform="translate(146.9375,130.8125)"/>
<path d="M0 0 C1.98 0 3.96 0 6 0 C6.33 1.32 6.66 2.64 7 4 C6.34 4 5.68 4 5 4 C4.67 4.66 4.34 5.32 4 6 C3.34 6 2.68 6 2 6 C2 5.34 2 4.68 2 4 C0.68 4 -0.64 4 -2 4 C-1.34 2.68 -0.68 1.36 0 0 Z " fill="#D2B04F" transform="translate(126,61)"/>
<path d="M0 0 C-0.375 1.9375 -0.375 1.9375 -1 4 C-3.70879335 5.35439668 -6.00933268 5.06501451 -9 5 C-9.33 4.34 -9.66 3.68 -10 3 C-6.64781163 0.76520776 -4.01177204 0 0 0 Z " fill="#434343" transform="translate(392,143)"/>
<path d="M0 0 C3.3 0 6.6 0 10 0 C10 1.65 10 3.3 10 5 C9.67 4.01 9.34 3.02 9 2 C8.01 2.495 8.01 2.495 7 3 C5.00039988 3.039992 2.99952758 3.04346799 1 3 C0.67 2.01 0.34 1.02 0 0 Z " fill="#DADADA" transform="translate(383,141)"/>
<path d="M0 0 C3.3 0 6.6 0 10 0 C8.3125 2.0625 8.3125 2.0625 6 4 C3.25 3.75 3.25 3.75 1 3 C0.67 2.01 0.34 1.02 0 0 Z " fill="#D3D3D3" transform="translate(256,141)"/>
<path d="M0 0 C0.99 0 1.98 0 3 0 C3.12375 0.639375 3.2475 1.27875 3.375 1.9375 C3.684375 2.9584375 3.684375 2.9584375 4 4 C4.66 4.33 5.32 4.66 6 5 C6 5.66 6 6.32 6 7 C3.69 6.34 1.38 5.68 -1 5 C-0.67 3.35 -0.34 1.7 0 0 Z " fill="#171717" transform="translate(354,133)"/>
<path d="M0 0 C0.99 0.33 1.98 0.66 3 1 C2.67 4.96 2.34 8.92 2 13 C1.34 13 0.68 13 0 13 C0 8.71 0 4.42 0 0 Z " fill="#050505" transform="translate(227,133)"/>
<path d="M0 0 C0 0.99 0 1.98 0 3 C-3.3 3.33 -6.6 3.66 -10 4 C-10.33 3.01 -10.66 2.02 -11 1 C-7.26513121 0.4254048 -3.78706732 0 0 0 Z " fill="#886B19" transform="translate(164,33)"/>
<path d="M0 0 C1.32 1.32 2.64 2.64 4 4 C2.75 6 2.75 6 1 8 C-0.32 8 -1.64 8 -3 8 C-3 7.01 -3 6.02 -3 5 C-2.34 4.67 -1.68 4.34 -1 4 C-0.34786708 1.97536745 -0.34786708 1.97536745 0 0 Z " fill="#2E2E2E" transform="translate(341,146)"/>
<path d="M0 0 C2.64 0 5.28 0 8 0 C7.34 1.32 6.68 2.64 6 4 C3.03 3.505 3.03 3.505 0 3 C0 2.01 0 1.02 0 0 Z " fill="#BFBFBF" transform="translate(193,147)"/>
<path d="M0 0 C0.33 0 0.66 0 1 0 C1 3.3 1 6.6 1 10 C0.01 10 -0.98 10 -2 10 C-2.1953125 3.9453125 -2.1953125 3.9453125 -2 2 C-1.34 1.34 -0.68 0.68 0 0 Z " fill="#090909" transform="translate(271,137)"/>
<path d="M0 0 C2.5 1.3125 2.5 1.3125 5 3 C5 3.99 5 4.98 5 6 C3.02 6 1.04 6 -1 6 C-0.67 4.02 -0.34 2.04 0 0 Z " fill="#383838" transform="translate(289,142)"/>
<path d="M0 0 C1.62463842 -0.05395478 3.24978541 -0.09277195 4.875 -0.125 C5.77992188 -0.14820313 6.68484375 -0.17140625 7.6171875 -0.1953125 C10 0 10 0 12 2 C11.625 4.125 11.625 4.125 11 6 C10.34 5.01 9.68 4.02 9 3 C6.67284 2.62599214 4.33882138 2.29235267 2 2 C1.34 1.34 0.68 0.68 0 0 Z " fill="#424242" transform="translate(354,139)"/>
<path d="M0 0 C1.65 0 3.3 0 5 0 C4.34 2.31 3.68 4.62 3 7 C2.34 6.01 1.68 5.02 1 4 C0.34 5.32 -0.32 6.64 -1 8 C-2 6 -2 6 -1.0625 2.875 C-0.5365625 1.451875 -0.5365625 1.451875 0 0 Z " fill="#333333" transform="translate(346,132)"/>
<path d="M0 0 C0 0.66 0 1.32 0 2 C1.32 2.66 2.64 3.32 4 4 C0.37 4.33 -3.26 4.66 -7 5 C-6 2 -6 2 -4.0625 0.8125 C-2 0 -2 0 0 0 Z " fill="#212121" transform="translate(187,171)"/>
<path d="M0 0 C2.92879371 0.62759865 5.36095629 1.58622659 8 3 C7.34 3.66 6.68 4.32 6 5 C2.875 4.625 2.875 4.625 0 4 C0 2.68 0 1.36 0 0 Z " fill="#C8C8C8" transform="translate(358,134)"/>
<path d="M0 0 C1.32 0 2.64 0 4 0 C4 1.65 4 3.3 4 5 C2.68 5 1.36 5 0 5 C-0.5625 3.0625 -0.5625 3.0625 -1 1 C-0.67 0.67 -0.34 0.34 0 0 Z " fill="#C5A14D" transform="translate(101,126)"/>
<path d="M0 0 C2.31 0 4.62 0 7 0 C7 0.66 7 1.32 7 2 C6.01 2 5.02 2 4 2 C4 4.31 4 6.62 4 9 C3.34 8.67 2.68 8.34 2 8 C2 5.69 2 3.38 2 1 C1.34 0.67 0.68 0.34 0 0 Z " fill="#B89844" transform="translate(128,38)"/>
<path d="M0 0 C2.31 0.66 4.62 1.32 7 2 C7 2.99 7 3.98 7 5 C5.35 5 3.7 5 2 5 C2 4.34 2 3.68 2 3 C0.68 2.67 -0.64 2.34 -2 2 C-1.34 2 -0.68 2 0 2 C0 1.34 0 0.68 0 0 Z " fill="#D6D6D6" transform="translate(355,140)"/>
<path d="M0 0 C1.65 0 3.3 0 5 0 C4.67 1.65 4.34 3.3 4 5 C2.68 5 1.36 5 0 5 C0 3.35 0 1.7 0 0 Z " fill="#C3C3C3" transform="translate(179,140)"/>
<path d="M0 0 C-1.38188453 3.21043882 -2.92421903 5.04936365 -5.625 7.25 C-6.57246094 8.03117187 -6.57246094 8.03117187 -7.5390625 8.828125 C-8.02117187 9.21484375 -8.50328125 9.6015625 -9 10 C-7.6834994 5.81113445 -4.97532335 0 0 0 Z " fill="#2B2B2B" transform="translate(175,73)"/>
<path d="M0 0 C3.3 0 6.6 0 10 0 C5.5 3.375 5.5 3.375 1 3 C0.67 2.01 0.34 1.02 0 0 Z " fill="#E3E3E3" transform="translate(213,141)"/>
<path d="M0 0 C1.32 0 2.64 0 4 0 C3.67 1.65 3.34 3.3 3 5 C1.68 5 0.36 5 -1 5 C-0.67 3.35 -0.34 1.7 0 0 Z " fill="#CFCFCF" transform="translate(146,140)"/>
<path d="M0 0 C2.0625 0.4375 2.0625 0.4375 4 1 C4 1.99 4 2.98 4 4 C1.03 3.67 -1.94 3.34 -5 3 C-3.68 2.34 -2.36 1.68 -1 1 C-0.67 0.67 -0.34 0.34 0 0 Z " fill="#C1C1C1" transform="translate(180,134)"/>
<path d="M0 0 C0.33 0.66 0.66 1.32 1 2 C-0.65 1.67 -2.3 1.34 -4 1 C-4 1.66 -4 2.32 -4 3 C-5.65 2.67 -7.3 2.34 -9 2 C-6.93460775 -2.1307845 -3.95654671 -0.92600029 0 0 Z " fill="#3F3F3F" transform="translate(170,132)"/>
<path d="M0 0 C1.20628008 2.33214148 2.1654738 4.49642139 3 7 C1.35 6.67 -0.3 6.34 -2 6 C-2 4.35 -2 2.7 -2 1 C-1.34 0.67 -0.68 0.34 0 0 Z " fill="#0D0D0D" transform="translate(322,129)"/>
<path d="M0 0 C2.69082872 0.17635452 5.32851446 0.61835921 8 1 C7.67 1.99 7.34 2.98 7 4 C5.35 4 3.7 4 2 4 C1.67 3.34 1.34 2.68 1 2 C0.34 1.67 -0.32 1.34 -1 1 C-0.67 0.67 -0.34 0.34 0 0 Z " fill="#474747" transform="translate(194,131)"/>
<path d="M0 0 C1.32 0 2.64 0 4 0 C4 1.98 4 3.96 4 6 C2.68 6 1.36 6 0 6 C0 4.02 0 2.04 0 0 Z " fill="#111111" transform="translate(124,141)"/>
<path d="M0 0 C0.33 0.66 0.66 1.32 1 2 C3.64 1.67 6.28 1.34 9 1 C9 1.99 9 2.98 9 4 C6.03 3.67 3.06 3.34 0 3 C0 2.01 0 1.02 0 0 Z " fill="#C7C7C7" transform="translate(141,134)"/>
<path d="M0 0 C0.78375 0.04125 1.5675 0.0825 2.375 0.125 C2.705 0.785 3.035 1.445 3.375 2.125 C-0.09 3.61 -0.09 3.61 -3.625 5.125 C-3.955 4.135 -4.285 3.145 -4.625 2.125 C-2.625 0.125 -2.625 0.125 0 0 Z " fill="#454545" transform="translate(404.625,130.875)"/>
<path d="M0 0 C3.3 0 6.6 0 10 0 C10 0.99 10 1.98 10 3 C8.02 3 6.04 3 4 3 C4 2.34 4 1.68 4 1 C2.68 0.67 1.36 0.34 0 0 Z " fill="#2A2924" transform="translate(160,32)"/>
<path d="M0 0 C1.5 1.25 1.5 1.25 3 3 C3 4.32 3 5.64 3 7 C1.68 7 0.36 7 -1 7 C-0.67 4.69 -0.34 2.38 0 0 Z " fill="#C29B41" transform="translate(86,123)"/>
<path d="M0 0 C1 3 1 3 0 6 C-1.32 6 -2.64 6 -4 6 C-3.67 4.35 -3.34 2.7 -3 1 C-2.01 0.67 -1.02 0.34 0 0 Z " fill="#BB902D" transform="translate(96,124)"/>
<path d="M0 0 C-1.98 0.99 -1.98 0.99 -4 2 C-3.34 2.66 -2.68 3.32 -2 4 C-3.423125 4.4640625 -3.423125 4.4640625 -4.875 4.9375 C-7.86080408 5.87394742 -7.86080408 5.87394742 -10 7 C-7.6551217 1.76911763 -5.98347266 -0.48514643 0 0 Z " fill="#F0E7D3" transform="translate(106,122)"/>
<path d="M0 0 C0.66 0.33 1.32 0.66 2 1 C1.34 1.66 0.68 2.32 0 3 C0 3.99 0 4.98 0 6 C-1.66666667 6 -3.33333333 6 -5 6 C-3.63016497 2.83884224 -3.0109362 2.0072908 0 0 Z " fill="#C19B41" transform="translate(99,119)"/>
<path d="M0 0 C-1 1.5625 -1 1.5625 -3 3 C-5.76614782 2.96726452 -8.26030547 2.49404328 -11 2 C-7.36576791 -0.32590854 -4.22911669 -0.16265833 0 0 Z " fill="#424242" transform="translate(302,167)"/>
<path d="M0 0 C1.32 0 2.64 0 4 0 C4 1.32 4 2.64 4 4 C5.65 4 7.3 4 9 4 C9 4.33 9 4.66 9 5 C3.5 5.36666667 3.5 5.36666667 1.125 3.625 C0 2 0 2 0 0 Z " fill="#484848" transform="translate(353,143)"/>
<path d="M0 0 C0.99 0.33 1.98 0.66 3 1 C2.34 4.96 1.68 8.92 1 13 C0.67 13 0.34 13 0 13 C0 8.71 0 4.42 0 0 Z " fill="#030303" transform="translate(159,133)"/>
<path d="M0 0 C2.05078125 0.03255208 4.1015625 0.06510417 6.15234375 0.09765625 C5.82234375 1.08765625 5.49234375 2.07765625 5.15234375 3.09765625 C1.43635184 3.29852068 0.3802593 3.24959995 -2.84765625 1.09765625 C-1.84765625 0.09765625 -1.84765625 0.09765625 0 0 Z " fill="#2E2E2E" transform="translate(212.84765625,131.90234375)"/>
<path d="M0 0 C0.33 0.66 0.66 1.32 1 2 C0.67 2.66 0.34 3.32 0 4 C-1.98 4 -3.96 4 -6 4 C-6.33 3.34 -6.66 2.68 -7 2 C-4.69 1.34 -2.38 0.68 0 0 Z " fill="#3E3E3E" transform="translate(149,144)"/>
<path d="M0 0 C0.99 0 1.98 0 3 0 C3 1.98 3 3.96 3 6 C2.34 5.01 1.68 4.02 1 3 C0.34 3 -0.32 3 -1 3 C-1.33 4.32 -1.66 5.64 -2 7 C-2.125 4.625 -2.125 4.625 -2 2 C-1.34 1.34 -0.68 0.68 0 0 Z " fill="#3F3F3F" transform="translate(321,127)"/>
<path d="M0 0 C2.3431213 0.25561323 4.67843403 0.59270772 7 1 C7.33 1.66 7.66 2.32 8 3 C5.69 3 3.38 3 1 3 C0.67 2.01 0.34 1.02 0 0 Z " fill="#212121" transform="translate(192,150)"/>
<path d="M0 0 C0.66 0.33 1.32 0.66 2 1 C2 1.66 2 2.32 2 3 C3.32 3.66 4.64 4.32 6 5 C0.46153846 5.36923077 0.46153846 5.36923077 -1.875 3.5 C-2.24625 3.005 -2.6175 2.51 -3 2 C-2.01 2 -1.02 2 0 2 C0 1.34 0 0.68 0 0 Z " fill="#4E4E4E" transform="translate(256,143)"/>
<path d="M0 0 C0.33 0 0.66 0 1 0 C1.33 2.31 1.66 4.62 2 7 C1.34 7 0.68 7 0 7 C-0.33 7.66 -0.66 8.32 -1 9 C-1.09765625 2.84765625 -1.09765625 2.84765625 -1 1 C-0.67 0.67 -0.34 0.34 0 0 Z " fill="#090909" transform="translate(193,136)"/>
<path d="M0 0 C1.65 0.33 3.3 0.66 5 1 C3.75 2.5 3.75 2.5 2 4 C0.68 4 -0.64 4 -2 4 C-1.34 2.68 -0.68 1.36 0 0 Z " fill="#272727" transform="translate(177,132)"/>
<path d="M0 0 C1.125 3.75 1.125 3.75 0 6 C-0.99 5.67 -1.98 5.34 -3 5 C-2.625 3.0625 -2.625 3.0625 -2 1 C-1.34 0.67 -0.68 0.34 0 0 Z " fill="#BB902D" transform="translate(90,120)"/>
</svg>
